<svg width="40" height="40" viewBox="0 0 40 40" fill="none" xmlns="http://www.w3.org/2000/svg">
<g clip-path="url(#clip0_45_69)">
<path d="M39.6667 21.9233C39.6133 21.9003 39.5563 21.8868 39.4983 21.8833C39.381 21.8799 39.2649 21.9075 39.1617 21.9633C39.0617 22.01 39.0083 22.0967 38.95 22.19C38.805 22.4033 38.7 22.6367 38.5733 22.8567C38.395 23.1683 38.1633 23.4417 37.94 23.715C37.715 23.975 37.4633 24.2 37.2333 24.4483C37.1867 24.4933 37.1133 24.52 37.055 24.4933C37.0083 24.4667 36.995 24.4 37.0017 24.3467C37.0683 23.7133 37.1267 23.075 37.2067 22.45C37.24 22.1633 37.2783 21.89 37.3117 21.5967C37.3583 21.185 37.405 20.785 37.4567 20.3717L37.8467 17.3317C37.88 17.1183 37.9 16.7117 37.6217 16.465C37.5141 16.3637 37.379 16.2965 37.2333 16.2717C37.0855 16.2634 36.9385 16.2982 36.81 16.3717C36.4333 16.6383 36.315 17.2117 36.2017 17.6383C35.965 18.6433 35.905 19.7067 35.4167 20.645C35.3212 20.8307 35.2085 21.007 35.08 21.1717C34.9962 21.2901 34.8911 21.3918 34.77 21.4717C34.6499 21.553 34.5025 21.5835 34.36 21.5567C34.2725 21.5319 34.1916 21.4882 34.1231 21.4286C34.0545 21.3689 33.9999 21.2948 33.9633 21.2117C33.8941 21.04 33.8585 20.8567 33.8583 20.6717C33.8325 19.7743 33.968 18.8795 34.2583 18.03C34.3333 17.81 34.4067 17.61 34.4317 17.3917C34.4783 17.1317 34.4783 16.7583 34.2417 16.5317C34.0233 16.3183 33.68 16.2317 33.4017 16.3183C33.0783 16.4117 32.885 16.725 32.7817 16.9717C32.4517 17.7433 32.365 18.555 32.2533 19.3817C32.18 19.9267 32.0417 20.4483 31.765 20.925C31.5027 21.3806 31.1625 21.7868 30.76 22.125C30.5633 22.27 30.39 22.33 30.2133 22.3033C30.1141 22.2865 30.0203 22.2463 29.9397 22.186C29.8592 22.1257 29.7941 22.0471 29.75 21.9567C29.6654 21.7929 29.6117 21.6149 29.5917 21.4317C29.5402 21.092 29.5201 20.7483 29.5317 20.405C29.5383 20.0333 29.5317 19.6717 29.605 19.3083C29.73 18.6583 30.735 16.08 30.9517 15.4C31.1767 14.7217 31.3883 14.0283 31.54 13.3233C31.6733 12.69 31.745 12.045 31.7233 11.4067C31.7117 10.945 31.6067 10.4467 31.2433 10.18C31.0972 10.0807 30.9276 10.0211 30.7514 10.0071C30.5752 9.99309 30.3984 10.0251 30.2383 10.1C29.9138 10.2477 29.6472 10.4984 29.48 10.8133C29.3134 11.1239 29.1868 11.4543 29.1033 11.7967C28.9163 12.5047 28.7683 13.2224 28.66 13.9467C28.5417 14.6617 28.43 15.36 28.3167 16.06C28.2167 16.6517 27.9733 18.75 27.8817 19.1933C27.7817 19.6467 27.59 20.0933 27.38 20.505C27.1617 20.9517 26.95 21.3983 26.7 21.8233C26.6293 21.9664 26.5301 22.0935 26.4083 22.1967C26.275 22.2967 26.105 22.3433 25.9583 22.2767C25.7883 22.1967 25.715 21.9833 25.6817 21.79C25.5567 21.065 25.6617 20.3317 25.8017 19.62C25.94 18.9017 26.535 15.62 26.6667 14.8683C26.8317 13.9817 27.0667 13.1183 27.1417 12.2183C27.1883 11.5717 27.2917 10.7517 26.805 10.24C26.6133 10.0133 26.2883 9.97333 26.0717 10.0133C25.7817 10.0733 25.555 10.3067 25.425 10.5067C25.2583 10.72 25.115 10.9733 24.995 11.285C24.8033 11.7583 24.685 12.31 24.56 12.8017L24.5067 13.0167C24.37 13.6544 24.2667 14.3 24.1967 14.9533C24.1568 15.3038 24.1234 15.655 24.0967 16.0067C24.0844 16.1733 24.0694 16.3439 24.0517 16.5183C24.0517 16.6517 24.0633 16.7983 24.005 16.925C23.9817 16.9667 23.9525 17.0049 23.9183 17.0383C23.785 17.1583 23.5817 17.1383 23.4017 17.1317C22.4733 17.105 21.66 17.6317 21.1517 18.39C20.8517 18.81 20.6833 19.2933 20.5017 19.78C20.485 19.86 20.445 19.9467 20.4117 20.0333C20.3267 20.2717 20.195 20.5783 20.0417 20.885C19.8898 21.1564 19.7129 21.4131 19.5133 21.6517C19.3198 21.8972 19.1057 22.1258 18.8733 22.335C18.6309 22.5532 18.3346 22.7028 18.015 22.7683C17.725 22.835 17.375 22.6967 17.11 22.43C16.8997 22.1759 16.779 21.8596 16.7667 21.53C16.76 21.4383 16.76 21.3383 16.8133 21.2583C16.8967 21.145 17.0567 21.1383 17.1967 21.1317C17.6984 21.0913 18.1788 20.9115 18.5837 20.6126C18.9887 20.3137 19.302 19.9075 19.4883 19.44C19.7183 18.8733 19.785 18.2767 19.6917 17.6967C19.6454 17.4102 19.5373 17.1372 19.375 16.8967C19.2116 16.6572 18.9824 16.4702 18.715 16.3583C18.2267 16.125 17.6183 16.1467 17.0317 16.365C16.0733 16.7517 15.4467 17.5983 15.1417 18.9683L15.1083 19.115C14.9183 19.9267 14.725 20.7817 14.1383 21.3717C13.9267 21.5717 13.7033 21.6433 13.525 21.61C13.4517 21.6033 13.3917 21.5433 13.3533 21.485C13.1933 21.2183 13.3583 20.5983 13.6033 19.8183C13.6685 19.6178 13.7241 19.4142 13.77 19.2083C13.7875 18.922 13.7252 18.6364 13.59 18.3833C13.4454 18.1425 13.2284 17.9535 12.97 17.8433C12.7317 17.7367 12.4533 17.7433 12.19 17.7433H12.1117C12.0383 17.7433 11.94 17.7433 11.86 17.7233C11.8057 17.7092 11.7553 17.6827 11.7129 17.646C11.6704 17.6093 11.6369 17.5633 11.615 17.5117C11.5934 17.3825 11.6025 17.25 11.6417 17.125C11.6483 17.0917 11.6617 17.045 11.6683 17.005C11.7034 16.8767 11.696 16.7406 11.6474 16.6168C11.5987 16.4931 11.5113 16.3884 11.3983 16.3183C11.2826 16.2466 11.1514 16.2037 11.0156 16.1933C10.8799 16.1828 10.7436 16.2051 10.6183 16.2583C10.3568 16.3782 10.1432 16.5825 10.0117 16.8383C9.86868 17.0791 9.8084 17.3601 9.83999 17.6383C9.90666 17.855 9.95666 18.1717 9.91166 18.43C9.81999 18.8967 9.54166 19.28 9.27166 19.6633C9.20499 19.7467 9.15166 19.84 9.09333 19.93C8.75218 20.4297 8.35763 20.8907 7.91666 21.305C7.29666 21.8633 6.57666 22.2633 5.86333 22.4217C4.62166 22.6967 3.35333 22.3217 2.67999 21.1983C2.30999 20.565 2.14666 19.82 2.09999 19.0883C1.9972 17.6542 2.23952 16.2163 2.80666 14.895C3.35333 13.6283 4.16666 12.3617 5.66499 12.205C6.25333 12.1383 6.91999 12.3433 7.18499 12.8717C7.37666 13.255 7.30999 13.715 7.18499 14.1217C7.06499 14.5283 6.89333 14.9383 6.88499 15.3717C6.87999 15.805 7.09166 16.2717 7.50166 16.3983C7.89833 16.5183 8.32666 16.265 8.55833 15.915C8.78833 15.565 8.86833 15.1483 8.96666 14.7417C9.20456 13.7865 9.57599 12.8697 10.07 12.0183C10.3017 11.625 10.565 11.205 10.4933 10.7517C10.4625 10.5907 10.3883 10.4412 10.2788 10.3193C10.1692 10.1974 10.0284 10.1078 9.87166 10.06C9.71521 10.0157 9.5497 10.0147 9.3927 10.0569C9.2357 10.0992 9.09308 10.1832 8.97999 10.3C8.75666 10.5467 8.63666 10.9183 8.33499 11.0167C8.05166 11.1167 7.75166 10.925 7.48999 10.7933C6.48999 10.26 5.26333 10.2733 4.21833 10.7133C3.16166 11.13 2.30833 11.9383 1.67499 12.87C0.769992 14.2167 0.163326 15.8467 0.0366592 17.4667C-0.00834079 18.0333 -0.0150075 18.625 0.0366592 19.1967C0.0966592 19.9633 0.203326 20.62 0.393326 21.2067C0.624993 21.9117 0.921659 22.5233 1.30499 23.03C1.74833 23.5967 2.28333 24.03 2.87166 24.275C3.49166 24.5217 4.17833 24.6417 4.85833 24.6217C5.53627 24.5907 6.20207 24.4306 6.81999 24.15C7.44139 23.8562 8.01729 23.4745 8.52999 23.0167C9.04499 22.5833 9.51999 22.085 9.92999 21.5333C10.2 21.16 10.4444 20.7667 10.6633 20.3533C10.7712 20.1448 10.8701 19.9319 10.96 19.715C11.0333 19.5417 11.105 19.3567 11.2967 19.2817C11.39 19.21 11.5467 19.2483 11.6333 19.3033C11.74 19.37 11.825 19.4283 11.8583 19.5283C11.9383 19.7217 11.8917 19.915 11.8517 20.0817V20.1017C11.805 20.2683 11.76 20.44 11.7 20.6067C11.4667 21.3133 11.3033 21.9583 11.4333 22.5983C11.5083 22.9433 11.6467 23.2433 11.85 23.4767C12.0703 23.7166 12.3673 23.8722 12.69 23.9167C13.1 23.9833 13.54 23.87 13.8983 23.6967C14.1394 23.5822 14.36 23.4378 14.56 23.2633C14.66 23.1633 14.7633 23.0633 14.85 22.9567C14.9233 22.8567 14.995 22.7117 15.1467 22.7183C15.1823 22.7223 15.2167 22.7339 15.2474 22.7523C15.2782 22.7707 15.3047 22.7955 15.325 22.825C15.3717 22.8767 15.3917 22.9433 15.425 23.0167C15.8083 23.8833 16.7183 24.4167 17.65 24.4167H17.7667C18.2167 24.4167 18.6933 24.2617 19.0833 24.05C19.5333 23.8167 19.8833 23.47 20.25 23.13C20.2833 23.1033 20.325 23.0633 20.3717 23.0567C20.43 23.0433 20.4883 23.0767 20.5367 23.13C20.5729 23.1802 20.5994 23.2367 20.615 23.2967C20.84 23.8633 21.3817 24.2967 21.9883 24.3967C22.291 24.4435 22.6006 24.4137 22.8889 24.31C23.1771 24.2064 23.4348 24.0322 23.6383 23.8033C23.7317 23.7033 23.8117 23.59 23.9167 23.51C24.0233 23.4367 24.1667 23.3833 24.2867 23.4367C24.465 23.5033 24.5117 23.71 24.59 23.8833C24.7683 24.275 25.185 24.5017 25.615 24.5083C26.0967 24.5083 26.5383 24.2617 26.8883 23.9417C27.2133 23.6367 27.4767 23.2767 27.7483 22.925C27.7935 22.8582 27.8541 22.8033 27.925 22.765C27.9917 22.725 28.085 22.7183 28.1417 22.765C28.1967 22.805 28.2167 22.865 28.2417 22.9167C28.5133 23.5833 29.22 24.0033 29.925 23.9967C30.62 23.99 31.2733 23.6233 31.7633 23.1367C31.9217 22.9833 32.0867 22.8033 32.2967 22.7867C32.53 22.7583 32.6417 22.9767 32.72 23.1533C32.84 23.39 32.9117 23.55 33.1367 23.7167C33.4 23.91 33.7367 23.97 34.0483 23.8833C34.3317 23.8167 34.615 23.6233 34.8317 23.3567C34.9517 23.21 35.0183 23.0167 35.1483 22.8833C35.3017 22.7383 35.3683 22.93 35.375 23.05C35.3994 23.2456 35.4039 23.4411 35.3883 23.6367C35.3617 24.03 35.3017 24.4217 35.255 24.8083C35.2367 24.9217 35.2217 25.035 35.15 25.1217C35.05 25.235 34.8733 25.255 34.7283 25.2283C34.551 25.2032 34.3724 25.1876 34.1933 25.1817L33.96 25.155C33.625 25.135 33.2933 25.095 32.9433 25.0817H32.635C31.9617 25.0817 31.4133 25.1617 30.9183 25.3483C30.1183 25.66 29.4983 26.2983 29.2467 27.045C29.129 27.3877 29.0992 27.7545 29.16 28.1117C29.2267 28.45 29.3767 28.7833 29.63 29.09C30.0717 29.615 30.7633 29.9483 31.545 29.995C32.225 30.0283 32.965 29.8883 33.6983 29.5617C35.1117 28.95 36.1683 27.7383 36.525 26.3117C36.525 26.2783 36.5417 26.2467 36.5633 26.24C37.0611 26.0656 37.5128 25.8278 37.9183 25.5267C38.3267 25.215 38.6967 24.8617 39.0017 24.455C39.1517 24.255 39.2922 24.0494 39.4233 23.8383C39.54 23.63 39.64 23.41 39.76 23.205C39.8652 23.0449 39.9387 22.8661 39.9767 22.6783C40.0027 22.5866 40.0087 22.4903 39.9943 22.396C39.98 22.3016 39.9455 22.2115 39.8933 22.1317C39.8459 22.0377 39.7659 21.9643 39.6683 21.925M16.8683 19.2083C16.8967 19.09 16.9433 18.975 16.9683 18.865C17.071 18.5647 17.2182 18.2815 17.405 18.025C17.4717 17.945 17.5383 17.8583 17.63 17.7983C17.6738 17.7652 17.7238 17.7411 17.777 17.7274C17.8302 17.7136 17.8856 17.7106 17.94 17.7183C18.1183 17.7517 18.245 17.9317 18.2767 18.1117C18.33 18.4117 18.21 18.7717 18.0867 19.0367C17.972 19.3051 17.7948 19.5422 17.57 19.7283C17.47 19.8017 17.38 19.875 17.2733 19.9217C17.2267 19.935 17.1683 19.9683 17.0817 19.9683H17.055C16.9633 19.9683 16.865 19.9217 16.845 19.8217C16.8058 19.6186 16.8143 19.4092 16.87 19.21M24.05 18.9033C24.0433 19.0233 24.01 19.15 24.0033 19.275C23.9696 19.7071 23.9696 20.1412 24.0033 20.5733C24.0233 20.8267 24.0817 21.0733 23.9767 21.3133C23.9015 21.5475 23.7788 21.7635 23.6162 21.9479C23.4536 22.1324 23.2545 22.2812 23.0317 22.385C22.9037 22.4446 22.7645 22.4764 22.6233 22.4783L22.5233 22.4717C22.3233 22.4717 22.1667 22.3183 22.0817 22.1717C22.0011 22.0309 21.9448 21.8777 21.915 21.7183C21.7868 21.0955 21.8282 20.4497 22.035 19.8483C22.1683 19.4817 22.3717 19.1233 22.6683 18.8583C22.9223 18.6158 23.2558 18.4736 23.6067 18.4583C23.7304 18.4501 23.8527 18.4881 23.95 18.565C24.0167 18.6383 24.05 18.7383 24.0433 18.8383C24.049 18.8484 24.0525 18.8595 24.0537 18.871C24.0548 18.8824 24.0536 18.894 24.05 18.905M34.7667 26.66C34.7417 26.7333 34.6667 26.8333 34.6333 26.8933C34.5633 27.0267 34.4633 27.165 34.365 27.285C34.2035 27.4685 34.0267 27.638 33.8367 27.7917C33.44 28.0917 32.9983 28.31 32.5417 28.4367C32.2771 28.5099 32.0045 28.5502 31.73 28.5567H31.6633C31.3509 28.5603 31.0471 28.4541 30.805 28.2567C30.6707 28.1533 30.5774 28.0057 30.5417 27.84C30.5178 27.6665 30.545 27.4899 30.62 27.3317C30.7484 27.0503 30.973 26.824 31.2533 26.6933C31.7967 26.4267 32.39 26.4 32.9517 26.4267C33.1833 26.4333 33.3933 26.4467 33.6183 26.46C33.7967 26.4667 33.9817 26.48 34.16 26.5C34.2555 26.5 34.35 26.5067 34.4433 26.52C34.5167 26.5267 34.5967 26.5133 34.6683 26.5333C34.7683 26.54 34.78 26.5933 34.7667 26.66Z" fill="#EDF4FF"/>
</g>
<defs>
<clipPath id="clip0_45_69">
<rect width="40" height="40" fill="white"/>
</clipPath>
</defs>
</svg>
