<svg width="40" height="40" viewBox="0 0 40 40" fill="none" xmlns="http://www.w3.org/2000/svg">
<path d="M36.7187 10.4687L36.8125 10.4062C36.625 10.0625 36.3437 9.75 36.0625 9.59375L20.9687 0.90625C20.7187 0.75 20.375 0.6875 20 0.6875C19.625 0.6875 19.2812 0.78125 19.0312 0.90625L4.03125 9.625C3.5 9.9375 3.125 10.7188 3.125 11.3125V28.7188C3.125 29.0625 3.1875 29.4375 3.40625 29.7813L3.34375 29.8125C3.5 30.0625 3.71875 30.2813 3.9375 30.4063L19 39.125C19.25 39.2812 19.5937 39.3438 19.9687 39.3438C20.3437 39.3438 20.6875 39.25 20.9375 39.125L35.9375 30.4063C36.4687 30.0938 36.8437 29.3125 36.8437 28.7188V11.2812C36.875 11.0312 36.8437 10.75 36.7187 10.4687ZM20 32.3438C13.1875 32.3438 7.65625 26.8125 7.65625 20C7.65625 13.1875 13.1875 7.65625 20 7.65625C24.5937 7.65625 28.5937 10.1875 30.7187 13.9062L26.6562 16.25C25.3437 13.9062 22.8437 12.3437 20 12.3437C15.7812 12.3437 12.3437 15.7812 12.3437 20C12.3437 24.2187 15.7812 27.6563 20 27.6563C22.8437 27.6563 25.3437 26.0938 26.6562 23.7813L30.6875 26.1562C28.5625 29.8438 24.5625 32.3438 20 32.3438ZM35.9375 19.375H34.9375L34.6562 20.625H35.9375V22.1875H34.375L34 24.0625H32.4687L32.8437 22.1875H31.6562L31.2812 24.0625H29.7812L30.1562 22.1875H29.375V20.625H30.4687L30.75 19.375H29.375V17.8125H31.0312L31.4062 15.9375H32.9375L32.5625 17.8125H33.75L34.125 15.9375H35.625L35.25 17.8125H35.9375V19.375ZM31.9687 20.625H33.1562L33.4375 19.375H32.25L31.9687 20.625Z" fill="#03021d"/>
</svg>
