<svg width="40" height="40" viewBox="0 0 40 40" fill="none" xmlns="http://www.w3.org/2000/svg">
<path d="M12.5033 0H16.8V1.79667H14.3V3.59333H16.8V5.39H12.5033V0ZM17.6583 0H21.9566V1.56333H19.4566V1.875H21.9566V5.46833H17.6583V3.82833H20.1583V3.515H17.6583V0ZM22.8166 0H27.1116V1.56333H24.6116V1.875H27.1116V5.46833H22.8166V3.82833H25.3166V3.515H22.8166V0Z" fill="#03021d"/>
<path fill-rule="evenodd" clip-rule="evenodd" d="M19.985 40L8.41167 36.7867L5 7.86167H35L31.59 36.7833L19.985 40ZM11.745 20.955L12.0633 24.5017H24.3583L23.9467 29.1017L19.99 30.1717H19.9867L16.0367 29.105L15.7833 26.2767H12.2217L12.7183 31.8467L19.985 33.8633L27.2633 31.8467L28.15 21.9067L28.2367 20.955L28.8767 13.7733H11.1067L11.43 17.3217H24.99L24.6667 20.955H11.745Z" fill="#03021d"/>
</svg>
