<svg width="40" height="40" viewBox="0 0 40 40" fill="none" xmlns="http://www.w3.org/2000/svg">
<g clip-path="url(#clip0_33_30)">
<path d="M19.1234 0H20.6713C24.7081 0.167188 28.6988 1.52812 31.9347 3.96125C35 6.23906 37.395 9.41031 38.7244 12.9944C39.4872 14.9903 39.8694 17.1131 40 19.2419V20.5578C39.8706 24.0869 38.855 27.5953 36.9594 30.5834C34.8341 33.9881 31.6712 36.7491 27.9822 38.3422C25.5671 39.3894 22.97 39.9526 20.3381 40H19.6681C16.0009 39.9403 12.3525 38.8563 9.26281 36.8775C5.76406 34.6547 2.97719 31.3197 1.44156 27.4659C0.590938 25.3719 0.137813 23.1312 0 20.8787V19.3297C0.1575 14.8328 1.86031 10.3894 4.81562 6.98719C7.24 4.15937 10.4688 2.025 14.0272 0.917813C15.6788 0.396875 17.3987 0.128125 19.1234 0ZM7.87219 11.7259C7.86281 15.5237 7.86875 19.3212 7.86875 23.1178C8.31563 23.1212 8.7625 23.1212 9.21031 23.1212C9.18687 19.8609 9.24188 16.6016 9.17719 13.3422C9.32719 13.6256 9.46406 13.9172 9.635 14.1881C11.5734 17.1594 13.4703 20.1562 15.4091 23.125C15.9522 23.1177 16.4953 23.1181 17.0384 23.1262C17.0375 19.3262 17.0363 15.5262 17.0397 11.7262C16.597 11.7219 16.1543 11.7207 15.7116 11.7225C15.735 14.9475 15.6691 18.1725 15.7506 21.3941C13.7172 18.1591 11.6566 14.9425 9.59594 11.7237C9.02136 11.7202 8.44676 11.7209 7.87219 11.7259ZM20.0109 11.7225C19.9706 15.5225 20.0097 19.3225 19.9962 23.1212C22.0178 23.1166 24.0394 23.1288 26.0619 23.115C26.0546 22.7033 26.0571 22.2915 26.0694 21.88C24.5031 21.875 22.9359 21.8822 21.3684 21.8738C21.3453 20.5581 21.3672 19.2406 21.3559 17.9247C22.7294 17.9003 24.1028 17.9284 25.4747 17.91C25.4712 17.5109 25.4713 17.1119 25.4688 16.7125C24.0978 16.7566 22.7272 16.6956 21.355 16.7163C21.359 15.459 21.361 14.2008 21.3613 12.9419C22.8297 12.9419 24.2981 12.9356 25.7653 12.9456C25.7628 12.5391 25.7653 12.1313 25.7703 11.725C23.85 11.72 21.9297 11.7225 20.0109 11.7225ZM27.0741 11.7394C27.0753 12.135 27.0753 12.5294 27.0766 12.9237C28.1666 12.9112 29.2553 12.9578 30.3453 12.9347C30.3381 16.3294 30.3466 19.7216 30.3419 23.1141C30.7981 23.1275 31.2575 23.125 31.7138 23.0859C31.6763 21.2134 31.7506 19.3397 31.665 17.4681C31.6859 16.6247 31.6431 15.7825 31.7016 14.94C31.7347 14.2712 31.615 13.6034 31.6906 12.9347C32.7894 12.9494 33.8891 12.9394 34.9875 12.9394C34.9826 12.5401 34.9904 12.1407 35.0109 11.7419C32.3644 11.7091 29.7181 11.7125 27.0741 11.7394ZM4.23438 21.5919C3.61656 21.8763 3.57625 22.8491 4.18781 23.1628C4.72531 23.5316 5.53313 23.0469 5.50875 22.4097C5.55031 21.7834 4.79313 21.2572 4.23438 21.5919ZM13.3687 26.3697C12.0322 27.4538 12.0481 29.8681 13.525 30.8228C14.3587 31.3525 15.4319 31.2428 16.3131 30.89C16.3167 30.6962 16.3219 30.5025 16.3287 30.3087C15.4941 30.7447 14.3256 30.8337 13.6178 30.1181C12.6912 29.1066 12.9 27.2216 14.1219 26.5319C14.8128 26.1681 15.6553 26.2744 16.3363 26.6066C16.3341 26.4003 16.335 26.1941 16.3363 25.9878C15.3684 25.6444 14.1731 25.6628 13.3687 26.3697ZM18.7459 27.2166C18.1553 27.2853 17.5716 27.5978 17.2981 28.1434C16.9066 28.9234 16.9516 29.9769 17.5681 30.6309C18.2041 31.3487 19.4259 31.3559 20.1244 30.7238C20.8822 30.0025 20.9678 28.7025 20.3609 27.86C20.0022 27.3509 19.3381 27.1775 18.7459 27.2166ZM24.3356 28.0675C23.8169 28.9684 23.9194 30.3331 24.835 30.9459C25.5172 31.3272 26.3766 31.2059 27.0456 30.8497C27.044 30.6566 27.0472 30.4641 27.0553 30.2722C26.5281 30.6066 25.825 30.8522 25.2391 30.515C24.83 30.2894 24.7066 29.8097 24.6409 29.3822C25.5394 29.37 26.4366 29.3566 27.3362 29.3591C27.3128 28.7878 27.2994 28.1422 26.8831 27.7003C26.1959 26.9409 24.8069 27.1825 24.3356 28.0675ZM21.7062 27.3375V31.09C21.9104 31.0898 22.1159 31.0902 22.3228 31.0912C22.33 30.4053 22.3103 29.7181 22.33 29.0306C22.335 28.6338 22.4947 28.2313 22.7938 27.9638C23.0441 27.7747 23.3822 27.8794 23.6691 27.8869C23.6653 27.6881 23.6629 27.49 23.6619 27.2925C23.1016 27.1681 22.6194 27.4963 22.3362 27.9541C22.33 27.7563 22.3238 27.5584 22.3203 27.3622C22.1149 27.3545 21.9102 27.3463 21.7062 27.3375Z" fill="#03021d"/>
<path d="M18.3619 27.8822C18.8782 27.6306 19.6191 27.7541 19.9072 28.2884C20.2354 28.8781 20.2282 29.6581 19.8644 30.2294C19.3894 30.9437 18.1372 30.7875 17.826 29.9975C17.511 29.2919 17.6332 28.2841 18.3619 27.8822ZM24.7001 28.8794C24.7144 28.3875 25.0576 27.8991 25.5519 27.7919C25.8569 27.7406 26.2072 27.7941 26.4185 28.0397C26.6285 28.2628 26.6726 28.5753 26.7247 28.8647C26.0497 28.8684 25.3751 28.855 24.7001 28.8794Z" fill="#03021d"/>
</g>
<defs>
<clipPath id="clip0_33_30">
<rect width="40" height="40" fill="white"/>
</clipPath>
</defs>
</svg>
