<svg width="40" height="40" viewBox="0 0 40 40" fill="none" xmlns="http://www.w3.org/2000/svg">
<path d="M10.925 5.50833C11.3507 5.08278 11.8561 4.74526 12.4124 4.51506C12.9686 4.28485 13.5647 4.16647 14.1666 4.16667H18.75V13.3333H14.1666C13.2599 13.3336 12.3735 13.065 11.6195 12.5614C10.8655 12.0578 10.2778 11.3419 9.93076 10.5042C9.58373 9.66649 9.49297 8.7447 9.66994 7.85542C9.84691 6.96614 10.2837 6.14933 10.925 5.50833ZM25.8333 13.3333H21.25V4.16667H25.8333C27.0489 4.16667 28.2147 4.64955 29.0742 5.5091C29.9338 6.36864 30.4166 7.53443 30.4166 8.75C30.4166 9.96558 29.9338 11.1314 29.0742 11.9909C28.2147 12.8504 27.0489 13.3333 25.8333 13.3333ZM25.8333 15.8333C24.6177 15.8333 23.4519 16.3162 22.5924 17.1758C21.7329 18.0353 21.25 19.2011 21.25 20.4167C21.25 21.6322 21.7329 22.798 22.5924 23.6576C23.4519 24.5171 24.6177 25 25.8333 25C27.0489 25 28.2147 24.5171 29.0742 23.6576C29.9338 22.798 30.4166 21.6322 30.4166 20.4167C30.4166 19.2011 29.9338 18.0353 29.0742 17.1758C28.2147 16.3162 27.0489 15.8333 25.8333 15.8333ZM10.925 28.8433C11.3506 28.4175 11.8559 28.0797 12.4122 27.8492C12.9684 27.6187 13.5646 27.5 14.1666 27.5H18.75V32.0833C18.7497 32.837 18.5636 33.5789 18.2082 34.2434C17.8528 34.908 17.339 35.4746 16.7123 35.8932C16.0856 36.3118 15.3653 36.5693 14.6153 36.6431C13.8653 36.7169 13.1087 36.6046 12.4125 36.3162C11.7162 36.0277 11.1019 35.5721 10.6237 34.9895C10.1456 34.407 9.81856 33.7155 9.67146 32.9764C9.52437 32.2373 9.5618 31.4733 9.78045 30.7521C9.9991 30.0308 10.3922 29.3763 10.925 28.8433ZM14.1666 15.8333C12.9511 15.8333 11.7853 16.3162 10.9257 17.1758C10.0662 18.0353 9.58331 19.2011 9.58331 20.4167C9.58331 21.6322 10.0662 22.798 10.9257 23.6576C11.7853 24.5171 12.9511 25 14.1666 25H18.75V15.8333H14.1666Z" fill="#03021d"/>
</svg>
