<svg width="40" height="40" viewBox="0 0 40 40" fill="none" xmlns="http://www.w3.org/2000/svg">
<g clip-path="url(#clip0_33_37)">
<path d="M39.245 18.2175L21.78 0.755001C21.5408 0.515755 21.2569 0.325968 20.9444 0.196483C20.6319 0.0669975 20.297 0.000350952 19.9587 0.000350952C19.6204 0.000350952 19.2855 0.0669975 18.973 0.196483C18.6605 0.325968 18.3766 0.515755 18.1375 0.755001L14.5125 4.38L19.1125 8.98C19.655 8.79477 20.2386 8.7658 20.7968 8.89637C21.355 9.02695 21.8652 9.31183 22.2693 9.71848C22.6733 10.1251 22.9549 10.6372 23.0819 11.1962C23.2089 11.7552 23.1762 12.3387 22.9875 12.88L27.42 17.315C28.0757 17.0841 28.7906 17.0834 29.4468 17.313C30.1031 17.5426 30.6615 17.9889 31.0303 18.5783C31.3991 19.1676 31.5561 19.865 31.4756 20.5556C31.3952 21.2462 31.0819 21.8887 30.5875 22.3775C30.0869 22.8811 29.4271 23.1953 28.7206 23.2664C28.0141 23.3376 27.3049 23.1612 26.714 22.7675C26.1231 22.3738 25.6873 21.7871 25.4809 21.1077C25.2745 20.4283 25.3104 19.6984 25.5825 19.0425L21.45 14.9075V25.79C22.0781 26.1009 22.5807 26.6178 22.874 27.2543C23.1673 27.8909 23.2335 28.6088 23.0617 29.2883C22.8899 29.9678 22.4904 30.5678 21.9298 30.9885C21.3692 31.4092 20.6813 31.625 19.9809 31.5999C19.2804 31.5749 18.6097 31.3106 18.0805 30.851C17.5513 30.3915 17.1956 29.7644 17.0727 29.0744C16.9498 28.3843 17.0671 27.673 17.4051 27.059C17.743 26.445 18.2812 25.9653 18.93 25.7V14.7175C18.5557 14.5641 18.2155 14.3382 17.9289 14.0527C17.6424 13.7673 17.4151 13.4279 17.2604 13.0542C17.1056 12.6805 17.0263 12.2799 17.0271 11.8754C17.0279 11.4709 17.1087 11.0706 17.265 10.6975L12.7325 6.1625L0.757458 18.1375C0.518212 18.3766 0.328425 18.6606 0.19894 18.973C0.0694542 19.2855 0.00280762 19.6205 0.00280762 19.9588C0.00280762 20.297 0.0694542 20.632 0.19894 20.9445C0.328425 21.257 0.518212 21.5409 0.757458 21.78L18.2225 39.245C18.4616 39.4842 18.7455 39.674 19.058 39.8035C19.3705 39.933 19.7054 39.9997 20.0437 39.9997C20.382 39.9997 20.7169 39.933 21.0294 39.8035C21.3419 39.674 21.6258 39.4842 21.865 39.245L39.2475 21.8625C39.4867 21.6234 39.6765 21.3395 39.806 21.027C39.9355 20.7145 40.0021 20.3795 40.0021 20.0413C40.0021 19.703 39.9355 19.368 39.806 19.0555C39.6765 18.7431 39.4867 18.4591 39.2475 18.22" fill="#03021d"/>
</g>
<defs>
<clipPath id="clip0_33_37">
<rect width="40" height="40" fill="white"/>
</clipPath>
</defs>
</svg>
