<svg width="54" height="40" viewBox="0 0 54 40" fill="none" xmlns="http://www.w3.org/2000/svg">
<g clip-path="url(#clip0_44_55)">
<path d="M12.0599 39.8031V19.3036L5.7024 13.4875L0.00146484 10.2599V36.1855C0.00146484 38.1872 1.62323 39.8031 3.61908 39.8031H12.0599Z" fill="#4285F4"/>
<path d="M41 39.8031H49.4408C51.4427 39.8031 53.0584 38.1811 53.0584 36.1855V10.2601L46.6012 13.9569L41 19.3036V39.8031Z" fill="#34A853"/>
<path d="M12.0599 19.3036L11.1948 11.2939L12.0599 3.62777L26.53 14.4804L41 3.62777L41.9677 10.88L41 19.3036L26.53 30.1563L12.0599 19.3036Z" fill="#EA4335"/>
<path d="M41 3.62777V19.3036L53.0584 10.2599V5.43648C53.0584 0.962903 47.9517 -1.58736 44.3766 1.09554L41 3.62777Z" fill="#FBBC04"/>
<path d="M0.00146484 10.2599L5.54737 14.4195L12.0599 19.3037V3.6278L8.68333 1.09558C5.10198 -1.58753 0.00146484 0.962932 0.00146484 5.4363V10.2599Z" fill="#C5221F"/>
</g>
<defs>
<clipPath id="clip0_44_55">
<rect width="53.06" height="40" fill="white"/>
</clipPath>
</defs>
</svg>
