<svg width="40" height="40" viewBox="0 0 40 40" fill="none" xmlns="http://www.w3.org/2000/svg">
<g clip-path="url(#clip0_33_7)">
<mask id="mask0_33_7" style="mask-type:luminance" maskUnits="userSpaceOnUse" x="0" y="0" width="40" height="40">
<path d="M0 0H40V40H0V0Z" fill="white"/>
</mask>
<g mask="url(#mask0_33_7)">
<path d="M8.46667 0H10.27V1.78167H11.92V0H13.7233V5.39333H11.92V3.58833H10.27V5.39333H8.46834L8.46667 0ZM16.0933 1.78833H14.5067V0H19.485V1.78833H17.8967V5.39333H16.0933V1.78833ZM20.275 0H22.155L23.3117 1.895L24.4667 0H26.3467V5.39333H24.5517V2.72L23.3117 4.63833H23.28L22.0383 2.72167V5.39333H20.275V0ZM27.2433 0H29.0483V3.61167H31.5817V5.395H27.2433V0Z" fill="#03021d"/>
<path fill-rule="evenodd" clip-rule="evenodd" d="M8.41 36.7867L5 7.86167H35L31.5883 36.7833L19.9833 40L8.41 36.7867ZM15.305 20.9533L14.9817 17.32H28.5567L28.8733 13.7733H11.1067L12.0633 24.5017H24.3583L23.9467 29.1017L19.99 30.1717H19.9867L16.0367 29.105L15.7833 26.2767H12.22L12.7167 31.8467L19.9833 33.8633L27.2617 31.8467L28.1483 21.9067L28.235 20.955L15.305 20.9533Z" fill="#03021d"/>
</g>
</g>
<defs>
<clipPath id="clip0_33_7">
<rect width="40" height="40" fill="white"/>
</clipPath>
</defs>
</svg>
