<svg width="40" height="40" viewBox="0 0 40 40" fill="none" xmlns="http://www.w3.org/2000/svg">
<g clip-path="url(#clip0_33_18)">
<mask id="mask0_33_18" style="mask-type:luminance" maskUnits="userSpaceOnUse" x="0" y="0" width="40" height="40">
<path d="M0 0H40V40H0V0Z" fill="white"/>
</mask>
<g mask="url(#mask0_33_18)">
<path fill-rule="evenodd" clip-rule="evenodd" d="M0 0H40V40H0V0ZM30.5783 33.5333C28.7233 33.5333 27.675 32.5667 26.87 31.25L23.815 33.025C24.9183 35.205 27.1733 36.8683 30.665 36.8683C34.235 36.8683 36.8933 35.015 36.8933 31.63C36.8933 28.4917 35.09 27.0967 31.8967 25.725L30.9567 25.3233C29.3433 24.6233 28.645 24.1683 28.645 23.04C28.645 22.1283 29.345 21.43 30.445 21.43C31.5233 21.43 32.2183 21.885 32.8633 23.04L35.79 21.1617C34.5517 18.9833 32.835 18.1517 30.445 18.1517C27.0883 18.1517 24.94 20.2983 24.94 23.1183C24.94 26.1767 26.74 27.625 29.4533 28.78L30.3933 29.1833C32.1083 29.9333 33.13 30.39 33.13 31.6783C33.13 32.755 32.135 33.5333 30.5783 33.5333ZM16.0117 33.5083C14.72 33.5083 14.1817 32.625 13.5917 31.575L10.5317 33.4283C11.4183 35.305 13.1617 36.8617 16.17 36.8617C19.5017 36.8617 21.7833 35.09 21.7833 31.1983V18.365H18.025V31.1483C18.025 33.0267 17.245 33.5083 16.01 33.5083" fill="#03021d"/>
</g>
</g>
<defs>
<clipPath id="clip0_33_18">
<rect width="40" height="40" fill="white"/>
</clipPath>
</defs>
</svg>
