<svg width="40" height="40" viewBox="0 0 40 40" fill="none" xmlns="http://www.w3.org/2000/svg">
<g clip-path="url(#clip0_33_41)">
<path fill-rule="evenodd" clip-rule="evenodd" d="M25.8759 10.6969C25.0622 8.16312 23.7569 5.92062 21.9175 3.99094C21.4525 3.50281 20.9356 3.05562 20.6113 2.44844C20.4063 2.06406 20.2109 1.67437 20.0113 1.2875L19.8844 0.968437L19.8491 1.09406C19.8325 1.72531 19.475 2.15312 19.03 2.55281C18.5288 3.00219 18.0625 3.49031 17.5813 3.96187L16.1013 5.90844L14.9047 8.10906L14.1044 10.27L14.0803 10.3034C13.64 11.75 13.4228 13.2375 13.3163 14.7394C13.2759 15.3041 13.3222 15.8766 13.3538 16.4441C13.3991 17.2553 13.54 18.0525 13.7513 18.8378C14.5191 21.6897 16.0775 24.055 18.2084 26.065C18.6041 26.4384 19.0319 26.7781 19.4447 27.1331L19.6275 27.7606L19.7975 28.7344L19.8788 29.7509C19.8778 29.9572 19.8694 30.1644 19.8816 30.37C19.885 30.4228 19.9538 30.4716 19.9925 30.5222L20.3375 30.6434L20.6966 30.7831L20.635 29.8797L20.6322 28.9897L20.7563 27.6341L20.8463 27.3391L21.1041 26.8825C21.4222 26.6269 21.7631 26.3944 22.0528 26.1097C22.5769 25.595 23.1 25.0731 23.5691 24.5091C24.1793 23.7779 24.7005 22.9769 25.1219 22.1228C25.4028 21.55 25.6678 20.9656 25.8869 20.3672C26.08 19.8397 26.1997 19.285 26.3519 18.7422L26.3919 18.625C26.7059 17.16 26.7588 15.68 26.6434 14.1906C26.5506 12.9903 26.2684 11.8319 25.8759 10.6969ZM19.6572 26.4078C19.7053 26.1669 19.765 25.9272 19.8084 25.6853C19.765 25.9272 19.7056 26.1669 19.6572 26.4078ZM33.2731 32.1762C33.015 31.6816 32.6363 31.3059 32.1356 31.0594C31.7163 30.8531 31.2653 30.7625 30.8016 30.7494C30.4541 30.7394 30.1053 30.7572 29.7572 30.7616C29.4481 30.7653 29.1388 30.7706 28.8297 30.7678C28.4663 30.7641 28.1028 30.7531 27.7394 30.7428C27.6791 30.7409 27.6363 30.7531 27.6081 30.8144C27.5641 30.9097 27.5119 31.0016 27.4578 31.1059L27.5184 31.1253C27.6988 31.1572 27.88 31.1844 28.0594 31.2203C28.29 31.2662 28.3938 31.3987 28.4044 31.5931C28.4196 31.8702 28.4266 32.1475 28.4253 32.425C28.4206 33.5231 28.4128 34.6213 28.4047 35.7191C28.4041 35.7916 28.4028 35.8672 28.3831 35.9353C28.3603 36.0141 28.3356 36.1159 28.2769 36.1547C28.1712 36.2226 28.0525 36.2679 27.9284 36.2875C27.7531 36.3163 27.7238 36.3241 27.6691 36.4966L27.6453 36.5828C27.6191 36.6769 27.6331 36.6953 27.7313 36.6963C28.2944 36.7025 28.8572 36.7147 29.42 36.7128C29.9334 36.7109 30.4469 36.7422 30.9584 36.6456C31.4419 36.5547 31.8931 36.3953 32.305 36.1256C32.8394 35.7753 33.2238 35.3072 33.4266 34.6962C33.5903 34.2028 33.6269 33.6994 33.5713 33.1834C33.5368 32.8318 33.4356 32.49 33.2731 32.1762ZM32.2866 35.1953C31.9853 35.7559 31.5359 36.1303 30.8938 36.2291C30.4916 36.2906 30.0888 36.2728 29.7053 36.1206C29.4625 36.0244 29.3722 35.8147 29.3647 35.5669C29.3578 35.324 29.3544 35.0811 29.3544 34.8381C29.3531 33.9838 29.3531 33.1295 29.3544 32.2753C29.355 32.0062 29.3597 31.7366 29.3641 31.4672C29.3672 31.2778 29.4069 31.2144 29.5916 31.1991C30.4028 31.1309 31.1769 31.2184 31.8197 31.7894C32.2172 32.1425 32.4434 32.5928 32.5375 33.11C32.5766 33.3256 32.5884 33.5462 32.6128 33.765C32.5931 34.2644 32.5256 34.7503 32.2866 35.1953ZM39.0956 34.27C38.9356 33.8806 38.6325 33.6366 38.2516 33.4803C38.1216 33.4269 37.9875 33.3828 37.8472 33.3309L37.8963 33.2997C38.0478 33.2025 38.2166 33.1241 38.3472 33.0044C38.6647 32.7134 38.7966 32.3475 38.7347 31.9128C38.6759 31.4994 38.4697 31.1959 38.1013 30.9991C37.7669 30.8209 37.4063 30.7559 37.0331 30.7562C36.3875 30.7569 35.7416 30.7666 35.0959 30.7678C34.8734 30.7681 34.6509 30.7516 34.4284 30.7484C34.3853 30.7478 34.3213 30.7587 34.3028 30.7875C34.2519 30.8656 34.2181 30.9556 34.1819 31.0425C34.1609 31.0931 34.1816 31.1209 34.2394 31.1284C34.3947 31.1497 34.5497 31.1762 34.7053 31.1994C34.9203 31.2316 35.0244 31.3434 35.0375 31.56L35.0403 31.6884C35.0406 32.3619 35.0428 33.0353 35.04 33.7087C35.036 34.3813 35.0296 35.0538 35.0209 35.7262C35.02 35.8109 35.0084 35.8959 34.9963 35.98C34.9778 36.1069 34.91 36.1944 34.78 36.2219L34.4122 36.2944C34.3688 36.3031 34.3059 36.3019 34.2881 36.3287C34.2206 36.4297 34.1663 36.54 34.1738 36.6731L34.2116 36.6834L35.4469 36.7138L35.6947 36.7128C36.1222 36.7078 36.5503 36.7162 36.9772 36.6944C37.4394 36.6712 37.8734 36.5341 38.2747 36.2981C38.7019 36.0466 39.0306 35.715 39.1475 35.2163C39.2225 34.8978 39.2228 34.5775 39.0956 34.27ZM35.9572 31.4009C35.9591 31.2656 36.0188 31.2069 36.1531 31.2034C36.4841 31.1944 36.8128 31.1963 37.1322 31.3103C37.5453 31.4578 37.7994 31.8141 37.7947 32.2494C37.7925 32.4166 37.795 32.5822 37.7334 32.7428C37.6119 33.0591 37.3788 33.2259 37.0481 33.2584C36.8756 33.2759 36.7016 33.2778 36.5478 33.2859L36.0347 33.2634C35.9666 33.2609 35.9369 33.2309 35.9372 33.1609L35.9572 31.4009ZM38.0841 35.6178C37.9188 35.9775 37.6175 36.1666 37.2403 36.2322C36.9397 36.284 36.6315 36.2704 36.3366 36.1925C36.1159 36.1359 36.0259 35.9588 35.9819 35.7622C35.9522 35.6306 35.9572 35.4741 35.9547 35.3372C35.9506 35.1259 35.9538 34.6875 35.9538 34.6875H35.9494C35.9494 34.375 35.9503 34.1044 35.9484 33.8047C35.9481 33.74 35.9591 33.7078 36.0381 33.7103C36.3188 33.7188 36.6003 33.7234 36.8809 33.7344C37.1319 33.7441 37.3669 33.8184 37.5878 33.9375C37.9241 34.1187 38.1266 34.3963 38.1822 34.7775C38.2247 35.0666 38.2066 35.3509 38.0841 35.6178ZM7.27563 35.9547L7.28157 34.2556C7.28251 34 7.25001 33.7494 7.16626 33.5069C6.93532 32.8391 6.29844 32.535 5.63532 32.7747C5.33376 32.8837 5.06344 33.0491 4.80532 33.2366C4.65501 33.3459 4.65501 33.3459 4.54626 33.19C4.23844 32.7488 3.79876 32.5978 3.28688 32.7606C2.95594 32.8656 2.66657 33.0453 2.39251 33.2541C2.36688 33.2734 2.31532 33.295 2.30001 33.2834C2.27438 33.2644 2.25657 33.2191 2.25719 33.185L2.27594 32.8831C2.27751 32.8197 2.26532 32.7559 2.25907 32.6894C2.13532 32.7322 2.03657 32.775 1.93313 32.8C1.61344 32.8781 1.29157 32.95 0.970006 33.0234C0.892193 33.0413 0.810006 33.0647 0.802506 33.1541C0.794693 33.2419 0.879381 33.2566 0.945006 33.2828C1.08313 33.3389 1.22042 33.3971 1.35688 33.4575C1.47157 33.5081 1.51438 33.5997 1.51376 33.7228C1.51157 34.2494 1.51501 34.7753 1.51188 35.3019C1.51063 35.5159 1.50063 35.7297 1.49094 35.9437C1.48219 36.1334 1.41751 36.2128 1.23376 36.2606C1.13626 36.2862 1.03719 36.3034 0.939068 36.3266C0.917506 36.3316 0.880631 36.3453 0.880318 36.3559C0.876256 36.4487 0.871256 36.5437 0.886881 36.6341C0.890006 36.6503 0.988131 36.6503 1.04251 36.6566L1.07907 36.6544C1.45782 36.6483 1.83667 36.6431 2.21563 36.6388C2.41657 36.6366 2.61719 36.6384 2.83532 36.6384L2.85876 36.3353C2.73376 36.3125 2.62219 36.2953 2.51219 36.2713C2.34063 36.2338 2.26751 36.1428 2.26313 35.9697L2.26001 35.7219C2.25813 35.0791 2.25563 34.4366 2.25563 33.7937C2.25563 33.7003 2.29438 33.6263 2.37657 33.5703C2.55063 33.4528 2.73438 33.3594 2.93782 33.3072C3.36657 33.1975 3.73844 33.35 3.90344 33.7147C3.95563 33.8297 3.99657 33.9569 4.00813 34.0819C4.06876 34.7262 4.04251 35.3712 4.00594 36.0156C3.99813 36.1547 3.93282 36.2247 3.79563 36.2587L3.47313 36.3269C3.44719 36.3334 3.40938 36.3159 3.40751 36.3375C3.40032 36.4266 3.40438 36.5631 3.40438 36.5631H3.48126L4.46313 36.5953C4.73219 36.5947 5.00157 36.6272 5.27032 36.6341C5.31844 36.635 5.36126 36.6422 5.36407 36.5866C5.3669 36.5002 5.36576 36.4138 5.36063 36.3275L5.30938 36.3184L5.03282 36.2562C4.84626 36.2122 4.78188 36.1412 4.78126 35.9525C4.77907 35.4872 4.78532 35.0222 4.78126 34.5572C4.7789 34.2912 4.769 34.0254 4.75157 33.76C4.74688 33.6894 4.75782 33.6431 4.81407 33.6034C4.97707 33.4842 5.1605 33.3958 5.35532 33.3425C5.96001 33.1831 6.45501 33.5147 6.48626 34.1381C6.51688 34.7394 6.50407 35.3428 6.49938 35.9453C6.49782 36.155 6.42844 36.2184 6.22188 36.2747L6.15063 36.2931C5.93907 36.3438 5.94094 36.3437 5.95344 36.5684C5.95751 36.6387 5.97688 36.6569 6.05188 36.655C6.48282 36.6453 6.91376 36.6428 7.34469 36.6391C7.52094 36.6375 7.69719 36.6391 7.88907 36.6391L7.92813 36.3466C7.75969 36.3019 7.60438 36.2687 7.45438 36.2197C7.32188 36.1747 7.27501 36.0947 7.27563 35.9547ZM22.1159 33.3794C22.2934 33.2147 22.2947 32.9972 22.245 32.7556C22.1044 32.9028 21.9469 32.9706 21.7672 32.9834C21.5263 33.0006 21.2897 32.9797 21.0653 32.8837C20.4584 32.6231 19.8609 32.6416 19.2653 32.9275C18.7644 33.1675 18.4563 33.5416 18.4253 34.1088C18.4056 34.4722 18.4738 34.8162 18.7163 35.1053C18.8616 35.2784 19.0481 35.3906 19.2584 35.4681C19.3491 35.5016 19.3559 35.5447 19.28 35.6025C19.2239 35.6449 19.1658 35.6845 19.1059 35.7212C18.979 35.801 18.8513 35.8796 18.7228 35.9569C18.6475 36.0025 18.6219 36.0606 18.6466 36.1497C18.7188 36.4116 18.9047 36.5628 19.1372 36.6731L19.2219 36.7322L19.1478 36.8062C18.92 36.9909 18.6831 37.1653 18.465 37.3612C18.2819 37.5259 18.2228 37.7466 18.2781 37.99C18.3897 38.4759 18.7119 38.7766 19.1691 38.9147C19.9681 39.1566 20.7184 39.0178 21.4025 38.5444C21.8081 38.2634 22.0991 37.8978 22.1875 37.3947C22.2866 36.8294 21.9725 36.3387 21.4103 36.2375C21.0384 36.17 20.6578 36.1506 20.2816 36.1075C20.1059 36.0875 19.9278 36.0756 19.7569 36.0353C19.6116 36.0009 19.5394 35.8825 19.5528 35.7669C19.5663 35.6531 19.6872 35.5472 19.8256 35.5363C20.1044 35.5138 20.3775 35.4703 20.6344 35.3528C21.315 35.0416 21.6309 34.4966 21.5519 33.7628C21.5416 33.6641 21.5191 33.5666 21.4988 33.4516C21.7166 33.4881 21.9394 33.5434 22.1159 33.3794ZM20.0506 36.8222C20.3275 36.8303 20.6425 36.8475 20.9469 36.9366C21.2147 37.0147 21.435 37.1516 21.5 37.4506C21.5784 37.8119 21.4047 38.1712 21.055 38.3644C20.7275 38.545 20.3719 38.56 20.0113 38.5228C19.7025 38.4909 19.4247 38.3841 19.2022 38.1559C18.9091 37.8556 18.9075 37.44 19.2009 37.1406C19.4631 36.8731 19.6034 36.8178 20.0506 36.8222ZM20.7434 34.6466C20.5822 35.1625 20.1128 35.2338 19.745 35.0688C19.4316 34.9284 19.295 34.6522 19.2234 34.3369C19.1956 34.2156 19.1891 34.0897 19.1728 33.9656C19.1794 33.7878 19.2088 33.6172 19.2853 33.4572C19.52 32.9644 20.0966 32.9937 20.4156 33.2169C20.5525 33.3125 20.6478 33.4425 20.7075 33.5966C20.8403 33.9319 20.853 34.3029 20.7434 34.6466ZM17.8153 36.2913C17.7037 36.2742 17.5933 36.2495 17.485 36.2175C17.295 36.1594 17.2719 36.1238 17.2697 35.9228C17.2641 35.3628 17.2603 34.8028 17.2541 34.2431C17.2509 33.9913 17.2209 33.7428 17.1438 33.5022C16.9406 32.8678 16.3184 32.5272 15.6959 32.7144C15.3509 32.8184 15.0547 33.0119 14.7788 33.2391L14.6781 33.3162L14.6784 33.2128C14.685 33.0937 14.6978 32.9747 14.6969 32.8556C14.6963 32.7934 14.6725 32.7309 14.6609 32.6763C14.4256 32.7472 14.2147 32.8184 13.9994 32.8728C13.7834 32.9272 13.5631 32.9641 13.3447 33.0084C13.2363 33.0303 13.1566 33.0959 13.1584 33.1706C13.1613 33.2759 13.2484 33.2963 13.3247 33.3278C13.4628 33.3844 13.6006 33.4416 13.7372 33.5022C13.8347 33.5456 13.8744 33.6263 13.8734 33.7309C13.8666 34.4588 13.8622 35.1869 13.8516 35.915C13.8484 36.145 13.7903 36.2056 13.5641 36.2562L13.4653 36.2759C13.2559 36.3119 13.25 36.3203 13.2644 36.5412L13.2656 36.5778C13.2631 36.6628 13.3003 36.6903 13.3878 36.6894C13.9441 36.6825 14.5004 36.68 15.0569 36.6819C15.2953 36.6828 15.3209 36.6641 15.3159 36.4191L15.3047 36.3138C15.1684 36.2909 15.0381 36.2744 14.9106 36.2462C14.7772 36.2166 14.7294 36.1619 14.7169 36.0262C14.7053 35.9022 14.7016 35.7762 14.7003 35.6512C14.6941 35.079 14.6894 34.5069 14.6863 33.935C14.6856 33.7909 14.7122 33.6572 14.8447 33.5644C15.0397 33.425 15.2696 33.3426 15.5088 33.3262C16.005 33.2922 16.3822 33.5862 16.4091 34.0809C16.4422 34.6912 16.4322 35.3038 16.44 35.9153C16.4406 35.9609 16.4325 36.0069 16.4263 36.0522C16.4144 36.1416 16.3706 36.2088 16.28 36.2319C16.1916 36.255 16.1019 36.2756 16.0116 36.2894C15.8769 36.3094 15.8741 36.3084 15.8638 36.4444L15.8672 36.5359C15.8831 36.6941 15.8834 36.6894 16.0434 36.6878C16.5816 36.6832 17.1195 36.681 17.6572 36.6812C17.8822 36.6819 17.8981 36.6713 17.9 36.4394L17.8994 36.3844C17.9028 36.325 17.8763 36.3009 17.8153 36.2913ZM25.3316 32.7528C24.7675 32.615 24.2325 32.7175 23.7244 32.9803C23.2306 33.2356 22.9006 33.6303 22.775 34.1753C22.6481 34.7263 22.7088 35.2638 22.9522 35.7753C23.1106 36.1075 23.3544 36.3644 23.6863 36.5313C24.4631 36.9225 25.4134 36.745 26.0228 36.2216C26.5038 35.8087 26.6803 35.2591 26.6909 34.5788C26.6844 34.5106 26.6778 34.3794 26.6597 34.2494C26.5575 33.5087 26.0447 32.9272 25.3316 32.7528ZM25.7588 35.6137C25.6091 36.2031 25.0994 36.465 24.5244 36.2625C24.2309 36.1594 24.0116 35.9622 23.8641 35.6956C23.5247 35.0831 23.4594 34.4319 23.6525 33.7637C23.7813 33.3187 24.1475 33.0753 24.5831 33.1059C24.9725 33.1331 25.2719 33.32 25.4916 33.6369C25.7231 33.9713 25.8125 34.3516 25.8363 34.7509C25.8403 34.815 25.8369 34.8791 25.8369 34.9434L25.8644 34.9466C25.83 35.1694 25.8138 35.3966 25.7588 35.6137ZM11.145 32.7431C10.5516 32.6075 9.99563 32.7416 9.48063 33.0431C9.03532 33.3037 8.74751 33.6931 8.63719 34.2019C8.53376 34.6772 8.57594 35.1444 8.74438 35.5997C8.84688 35.8772 9.00219 36.1212 9.23001 36.3116C9.70969 36.7119 10.2703 36.8131 10.8669 36.7016C11.3719 36.6069 11.8156 36.3825 12.1381 35.9628C12.44 35.5703 12.555 35.1197 12.5669 34.6312C12.5491 34.4766 12.5447 34.3191 12.5119 34.1681C12.3488 33.4147 11.9081 32.9172 11.145 32.7431ZM11.6291 35.6119C11.4844 36.1981 10.9666 36.4666 10.3956 36.2641C10.0291 36.1337 9.79032 35.8653 9.63938 35.5212C9.39751 34.9684 9.34813 34.3931 9.50469 33.81C9.62469 33.3641 9.98626 33.0356 10.5397 33.1144C10.8794 33.1625 11.1444 33.3359 11.3419 33.6119C11.6088 33.9841 11.6966 34.4103 11.7088 34.8581V34.9497L11.7313 34.9531C11.6984 35.1731 11.6822 35.3969 11.6291 35.6119Z" fill="#03021d"/>
</g>
<defs>
<clipPath id="clip0_33_41">
<rect width="40" height="40" fill="white"/>
</clipPath>
</defs>
</svg>
