<svg width="40" height="40" viewBox="0 0 40 40" fill="none" xmlns="http://www.w3.org/2000/svg">
<g clip-path="url(#clip0_36_45)">
<path d="M27.3417 9.16833C27.15 9.16833 27.02 9.19167 26.885 9.22333V9.245H26.9083C26.9983 9.41833 27.1517 9.545 27.265 9.7C27.355 9.87833 27.4317 10.0567 27.5217 10.2333L27.545 10.2083C27.7017 10.0983 27.7783 9.92166 27.7783 9.65333C27.7117 9.575 27.7017 9.49667 27.645 9.42C27.5783 9.30833 27.435 9.25333 27.345 9.165L27.3417 9.16833ZM9.61667 31.1583H8.07167C8.02791 28.703 7.87777 26.2507 7.62167 23.8083H7.60833L5.25833 31.1583H4.08333L1.75 23.8083H1.73333C1.55093 26.2545 1.44255 28.7056 1.40833 31.1583H0C0.0922222 27.8806 0.32 24.8083 0.683333 21.9417H2.6L4.825 28.715H4.83833L7.08333 21.9417H8.90833C9.31167 25.3017 9.54944 28.3739 9.62167 31.1583H9.61667ZM16.3117 24.3583C15.6817 27.7683 14.8528 30.2461 13.825 31.7917C13.0217 32.985 12.1422 33.5811 11.1867 33.58C10.9333 33.58 10.6189 33.5033 10.2433 33.35V32.5267C10.4278 32.5556 10.6422 32.57 10.8867 32.57C11.3333 32.57 11.6928 32.4467 11.965 32.2C12.2928 31.9 12.4567 31.5639 12.4567 31.1917C12.4567 30.9328 12.3289 30.4083 12.0733 29.6183L10.3833 24.3583H11.9L13.1117 28.2917C13.3861 29.185 13.5 29.8089 13.4533 30.1633C14.12 28.3878 14.5839 26.4528 14.845 24.3583H16.3117ZM36.8533 31.1583H32.47V21.9417H33.945V30.025H36.8533V31.1583ZM31.32 31.3833L29.6267 30.55C29.7778 30.4244 29.9194 30.2856 30.0517 30.1333C30.7728 29.2889 31.1328 28.0372 31.1317 26.3783C31.1317 23.3283 29.9344 21.8028 27.54 21.8017C26.3667 21.8017 25.45 22.1889 24.79 22.9633C24.0722 23.81 23.7133 25.0572 23.7133 26.705C23.7122 28.3261 24.0311 29.515 24.67 30.2717C25.2522 30.955 26.1317 31.2967 27.3083 31.2967C27.7483 31.2967 28.1511 31.2422 28.5167 31.1333L30.725 32.42L31.325 31.3833H31.32ZM25.8333 29.3133C25.4589 28.7122 25.2717 27.7478 25.2717 26.42C25.2717 24.0978 25.9772 22.9367 27.3883 22.9367C28.1283 22.9367 28.6711 23.2144 29.0167 23.77C29.39 24.3733 29.5767 25.3306 29.5767 26.6417C29.5767 28.9828 28.8711 30.1539 27.46 30.155C26.7189 30.155 26.1756 29.8772 25.83 29.3217L25.8333 29.3133ZM23.07 28.605C23.07 29.3894 22.7833 30.0317 22.21 30.5317C21.6389 31.0317 20.87 31.2817 19.9033 31.2817C18.9983 31.2817 18.13 30.995 17.2817 30.4233L17.6767 29.63C18.4056 29.9956 19.0667 30.1778 19.66 30.1767C20.2133 30.1767 20.6483 30.0544 20.965 29.81C21.1237 29.6911 21.2518 29.5361 21.3387 29.3578C21.4256 29.1796 21.4689 28.9833 21.465 28.785C21.465 28.235 21.0817 27.7683 20.385 27.3767C19.7383 27.0217 18.4467 26.2817 18.4467 26.2817C17.7433 25.77 17.3933 25.2217 17.3933 24.32C17.3933 23.5711 17.6544 22.9683 18.1767 22.5117C18.7 22.0494 19.3778 21.8189 20.21 21.82C21.0644 21.82 21.8422 22.0478 22.5433 22.5033L22.1883 23.2967C21.6294 23.0498 21.026 22.9194 20.415 22.9133C19.9428 22.9133 19.5794 23.0278 19.325 23.2567C19.1969 23.3635 19.0935 23.497 19.0222 23.6478C18.9508 23.7986 18.9131 23.9632 18.9117 24.13C18.9117 24.6767 19.3017 25.1467 20.0217 25.5467C20.6767 25.905 22 26.6633 22 26.6633C22.7217 27.1717 23.08 27.7133 23.08 28.61L23.07 28.605ZM38.7067 18.8517C37.815 18.8283 37.1233 18.9183 36.545 19.165C36.3783 19.2317 36.1117 19.2317 36.0883 19.4433C36.18 19.5317 36.1933 19.6767 36.2717 19.8C36.405 20.0233 36.635 20.3217 36.8483 20.4783C37.0794 20.6639 37.3167 20.8361 37.56 20.995C37.9933 21.2617 38.485 21.42 38.91 21.6883C39.1517 21.845 39.3983 22.0433 39.6433 22.21C39.765 22.2933 39.8433 22.4433 40 22.4967V22.4633C39.9233 22.3633 39.9 22.2183 39.825 22.1067C39.7133 21.995 39.6017 21.895 39.4917 21.785C39.1649 21.3534 38.7743 20.974 38.3333 20.66C37.9767 20.4167 37.1967 20.0767 37.05 19.6683L37.0283 19.645C37.2717 19.6233 37.5617 19.535 37.795 19.4683C38.1733 19.3683 38.52 19.39 38.9117 19.2917C39.0894 19.245 39.2672 19.1928 39.445 19.135V19.035C39.245 18.835 39.095 18.5633 38.8883 18.3767C38.3109 17.8731 37.6958 17.4146 37.0483 17.005C36.6983 16.7817 36.255 16.6383 35.8867 16.4483C35.7533 16.3817 35.53 16.3483 35.4533 16.2367C35.2533 15.9933 35.1367 15.67 34.995 15.38C34.6681 14.7449 34.3641 14.0984 34.0833 13.4417C33.8833 13.005 33.7617 12.57 33.5167 12.17C32.3667 10.275 31.1217 9.12667 29.2067 8.00333C28.795 7.77 28.3017 7.67 27.78 7.54667C27.5017 7.53333 27.2233 7.51333 26.9467 7.50167C26.7633 7.42333 26.5867 7.21167 26.43 7.11C25.7967 6.71 24.1567 5.84333 23.69 6.99C23.39 7.71333 24.135 8.42667 24.3933 8.79333C24.585 9.04833 24.8267 9.34 24.96 9.62667C25.0383 9.82 25.06 10.0183 25.1383 10.22C25.315 10.71 25.4833 11.2567 25.7167 11.715C25.8383 11.9483 25.9717 12.1933 26.1283 12.4033C26.2183 12.525 26.3717 12.5817 26.4067 12.7817C26.25 13.0083 26.24 13.3383 26.15 13.615C25.75 14.8767 25.9067 16.4367 26.4733 17.365C26.6517 17.6417 27.0767 18.255 27.645 18.02C28.145 17.82 28.035 17.1867 28.1783 16.6283C28.2117 16.495 28.19 16.4067 28.2583 16.3167V16.3417C28.415 16.655 28.5717 16.9533 28.715 17.2667C29.0583 17.8133 29.6583 18.38 30.16 18.7583C30.4267 18.9583 30.6383 19.305 30.9717 19.4283V19.395H30.9467C30.875 19.2983 30.78 19.2517 30.69 19.1733C30.4789 18.9662 30.2839 18.7434 30.1067 18.5067C29.6385 17.8641 29.2222 17.1853 28.8617 16.4767C28.6783 16.1267 28.525 15.75 28.3783 15.405C28.3117 15.2717 28.3117 15.0717 28.2 15.005C28.0333 15.2483 27.7883 15.46 27.6667 15.76C27.455 16.24 27.4333 16.83 27.3533 17.4433C27.3083 17.455 27.33 17.4433 27.3083 17.4667C26.9517 17.38 26.83 17.01 26.6967 16.7C26.3633 15.9083 26.3083 14.6367 26.5967 13.725C26.675 13.4917 27.0083 12.755 26.875 12.5317C26.805 12.32 26.585 12.1983 26.4633 12.0267C26.307 11.8031 26.173 11.5647 26.0633 11.315C25.7967 10.6917 25.6633 10.0017 25.3733 9.37833C25.24 9.09 25.0067 8.78833 24.8167 8.52333C24.605 8.22333 24.3717 8.01167 24.2033 7.65667C24.1483 7.535 24.07 7.33333 24.1583 7.2C24.1817 7.11 24.2283 7.075 24.315 7.05C24.4617 6.93 24.8733 7.08667 25.0183 7.15333C25.43 7.32 25.7767 7.47667 26.1217 7.71C26.2783 7.82 26.4467 8.03167 26.6467 8.08667H26.88C27.2367 8.165 27.6383 8.11 27.9717 8.20833C28.5633 8.39833 29.0967 8.675 29.575 8.975C31.049 9.91634 32.2479 11.2308 33.05 12.785C33.1833 13.0417 33.2417 13.2767 33.3633 13.5433C33.5967 14.0933 33.885 14.6483 34.1217 15.18C34.355 15.705 34.58 16.24 34.915 16.675C35.0817 16.9083 35.7517 17.03 36.0517 17.1517C36.2733 17.2517 36.6183 17.3433 36.8183 17.465C37.2017 17.6983 37.575 17.965 37.935 18.2217C38.1183 18.3483 38.6733 18.6267 38.7067 18.8517Z" fill="#03021d"/>
</g>
<defs>
<clipPath id="clip0_36_45">
<rect width="40" height="40" fill="white"/>
</clipPath>
</defs>
</svg>
