<svg width="40" height="40" viewBox="0 0 40 40" fill="none" xmlns="http://www.w3.org/2000/svg">
<g clip-path="url(#clip0_33_5)">
<path d="M20 9.16667C8.785 9.16667 0 13.925 0 20C0 26.075 8.785 30.8333 20 30.8333C31.215 30.8333 40 26.075 40 20C40 13.925 31.215 9.16667 20 9.16667ZM17.9233 12.5H20.1067L19.4133 15.8333H21.3633C22.6 15.8333 23.43 16.0067 23.9033 16.4383C24.365 16.865 24.505 17.565 24.32 18.5183L23.4533 22.5H21.2333L22.0317 18.8183C22.1283 18.3133 22.09 17.9617 21.92 17.7767C21.7517 17.5917 21.38 17.5 20.8233 17.5H19.075L18.02 22.5H15.8333L17.9233 12.5ZM8.33333 15.8333H12.7767C14.895 15.8333 16.1783 17.2533 15.6767 19.3717C15.0933 21.8333 13.5333 22.5 10.66 22.5H9.28667L8.85167 25H6.64333L8.33333 15.8333ZM25.8333 15.8333H30.2767C32.395 15.8333 33.6783 17.2533 33.1767 19.3717C32.5933 21.8333 31.0317 22.5 28.16 22.5H26.7867L26.3517 25H24.1433L25.8333 15.8333ZM10.225 17.5L9.59667 20.8333H11.0217C12.255 20.8333 13.4017 20.6933 13.5933 18.855C13.665 18.1417 13.3683 17.5 11.9433 17.5H10.225ZM27.725 17.5L27.0967 20.8333H28.5217C29.755 20.8333 30.9017 20.6933 31.0933 18.855C31.165 18.1417 30.87 17.5 29.4433 17.5H27.725Z" fill="#03021d"/>
</g>
<defs>
<clipPath id="clip0_33_5">
<rect width="40" height="40" fill="white"/>
</clipPath>
</defs>
</svg>
