<svg width="40" height="40" viewBox="0 0 40 40" fill="none" xmlns="http://www.w3.org/2000/svg">
<g clip-path="url(#clip0_33_33)">
<path d="M23.7167 20.0067C23.7167 20.9948 23.3243 21.9424 22.6257 22.6412C21.9272 23.3401 20.9798 23.7329 19.9917 23.7333C19.0033 23.7333 18.0554 23.3407 17.3565 22.6418C16.6576 21.9429 16.265 20.995 16.265 20.0067C16.265 19.0186 16.6574 18.0709 17.3559 17.3721C18.0545 16.6733 19.0019 16.2804 19.99 16.28C20.9784 16.28 21.9263 16.6726 22.6252 17.3715C23.324 18.0704 23.7167 19.0183 23.7167 20.0067ZM28.13 2.19C25.8867 2.19 22.9517 3.79 19.9833 6.56C17.0167 3.805 14.08 2.22333 11.8383 2.22333C11.155 2.22333 10.5333 2.37833 9.995 2.68667C7.70333 4.00833 7.19 8.12667 8.37333 13.295C3.3 14.8617 0 17.3667 0 20.0067C0 22.6567 3.31667 25.1683 8.405 26.7233C7.23167 31.9117 7.755 36.0367 10.0517 37.3567C10.585 37.6683 11.2017 37.815 11.8883 37.815C14.13 37.815 17.0667 36.215 20.035 33.4417C23.0017 36.1983 25.9383 37.78 28.18 37.78C28.8633 37.78 29.485 37.63 30.0233 37.3217C32.3133 36.0017 32.8283 31.8833 31.645 26.7133C36.7 25.16 40 22.65 40 20.0067C40 17.3567 36.6833 14.845 31.595 13.2867C32.7683 8.10334 32.245 3.975 29.9483 2.65333C29.393 2.34132 28.7669 2.18149 28.13 2.19ZM28.1217 4.00667V4.01667C28.4967 4.01667 28.7983 4.09 29.0517 4.22833C30.1617 4.865 30.6433 7.28667 30.2683 10.4017C30.1783 11.1683 30.0317 11.9767 29.8517 12.8017C28.1474 12.3894 26.4174 12.0921 24.6733 11.9117C23.6343 10.4787 22.5012 9.11624 21.2817 7.83333C23.935 5.36667 26.4267 4.01333 28.1233 4.00833L28.1217 4.00667ZM11.8383 4.04C13.525 4.04 16.0283 5.38667 18.6883 7.84C17.545 9.04 16.405 10.4017 15.3217 11.91C13.5737 12.0896 11.8402 12.3892 10.1333 12.8067C9.95435 12.025 9.81307 11.2352 9.71 10.44C9.32667 7.32667 9.8 4.90667 10.9 4.26167C11.2167 4.11167 11.5667 4.04833 11.8383 4.04ZM19.975 9.12333C20.735 9.90556 21.4906 10.7744 22.2417 11.73C21.5083 11.6967 20.7583 11.6733 20 11.6733C19.2322 11.6722 18.4767 11.6911 17.7333 11.73C18.4667 10.7767 19.225 9.905 19.975 9.12333ZM20 13.5C21.2333 13.5 22.4617 13.5567 23.67 13.655C24.3478 14.6261 25.005 15.6594 25.6417 16.755C26.2606 17.8228 26.8261 18.9039 27.3383 19.9983C26.825 21.09 26.2617 22.1817 25.65 23.2483C25.0167 24.3483 24.3617 25.395 23.6833 26.365C21.237 26.5794 18.7768 26.5822 16.33 26.3733C15.6309 25.3673 14.9731 24.3331 14.3583 23.2733C13.7394 22.2056 13.1739 21.1244 12.6617 20.03C13.1764 18.9202 13.7397 17.8336 14.35 16.7733C14.9833 15.6733 15.6383 14.63 16.3167 13.66C17.5414 13.5512 18.7704 13.4967 20 13.4967V13.5ZM13.9417 13.9233C13.5417 14.5517 13.1417 15.195 12.7683 15.8567C12.395 16.5067 12.0422 17.1589 11.71 17.8133C11.2683 16.72 10.8933 15.63 10.5833 14.5683C11.65 14.3183 12.775 14.095 13.9417 13.9233ZM26.0417 13.9233C27.2017 14.0933 28.3161 14.3083 29.385 14.5683C29.085 15.6217 28.71 16.705 28.285 17.79C27.6048 16.4634 26.8566 15.1728 26.0433 13.9233H26.0417ZM31.1467 15.0483C31.9544 15.2994 32.7183 15.5761 33.4383 15.8783C36.325 17.1117 38.1917 18.725 38.1917 20.005C38.1833 21.285 36.3167 22.905 33.43 24.13C32.73 24.43 31.9633 24.7 31.1717 24.9517C30.6709 23.2574 30.0585 21.5983 29.3383 19.985C30.0883 18.29 30.6883 16.635 31.1467 15.045V15.0483ZM8.82167 15.055C9.285 16.655 9.89667 18.3167 10.655 20.0217C9.93924 21.6249 9.33449 23.2755 8.845 24.9617C8.03833 24.7117 7.27167 24.4317 6.56167 24.1283C3.675 22.9 1.80833 21.285 1.80833 20.005C1.80833 18.725 3.675 17.1017 6.56167 15.8783C7.26167 15.5783 8.02833 15.3083 8.82167 15.055ZM28.285 22.1883C28.7267 23.2833 29.1017 24.375 29.4117 25.435C28.345 25.6967 27.2183 25.9183 26.0517 26.085C26.8635 24.8256 27.6079 23.525 28.285 22.1883ZM11.71 22.2217C12.0433 22.875 12.3933 23.5267 12.7767 24.18C13.16 24.8311 13.5517 25.4661 13.9517 26.085C12.8279 25.9224 11.7122 25.7078 10.6083 25.4417C10.9083 24.3917 11.285 23.305 11.7083 22.22L11.71 22.2217ZM29.8667 27.2C30.0533 28.0217 30.2 28.8133 30.29 29.5717C30.6733 32.685 30.2 35.105 29.1 35.7517C28.855 35.9017 28.5367 35.965 28.1617 35.965C26.475 35.965 23.9717 34.62 21.3117 32.165C22.455 30.965 23.595 29.605 24.6783 28.0983C26.5233 27.9017 28.2683 27.6 29.8667 27.2ZM10.15 27.2167C11.75 27.6067 13.4933 27.9083 15.3283 28.1033C16.4283 29.6117 17.57 30.9817 18.72 32.18C16.0617 34.6517 13.5667 36.005 11.87 36.005C11.5496 36.0066 11.2335 35.9311 10.9483 35.785C9.83833 35.1517 9.35667 32.7283 9.73167 29.6133C9.82167 28.8467 9.97 28.04 10.15 27.2167ZM17.75 28.2833C18.4844 28.3189 19.2317 28.3378 19.9917 28.34C20.7594 28.3411 21.515 28.3222 22.2583 28.2833C21.525 29.2367 20.7667 30.1083 20.0167 30.8917C19.2567 30.1072 18.5011 29.2378 17.75 28.2833Z" fill="#03021d"/>
</g>
<defs>
<clipPath id="clip0_33_33">
<rect width="40" height="40" fill="white"/>
</clipPath>
</defs>
</svg>
