<svg width="40" height="40" viewBox="0 0 40 40" fill="none" xmlns="http://www.w3.org/2000/svg">
<g clip-path="url(#clip0_33_39)">
<path d="M22.5647 3.83C22.4913 3.82 21.306 4.24781 20.5416 4.55812C19.5097 4.97906 18.7085 5.38 18.2141 5.72687C18.0504 5.84312 17.8566 6.03406 17.7894 6.13906L17.7863 6.13094C17.7863 6.13094 17.7801 6.15094 17.7769 6.15656C17.7738 6.16281 17.766 6.17219 17.7638 6.1775C17.7498 6.21368 17.7427 6.25215 17.7429 6.29094L17.7541 6.30125C17.7569 6.33719 17.7657 6.3775 17.7832 6.42156C17.8269 6.52844 17.9535 6.65844 18.0969 6.79219C18.0969 6.79219 19.5829 8.24094 19.7632 8.44781C20.5844 9.39625 20.9422 10.3309 20.9757 11.6197C20.9957 12.4478 20.8385 13.1762 20.4482 14.0209C19.7538 15.5369 18.2879 17.2094 16.0272 19.0656L16.0597 19.0547C16.046 19.0656 16.0235 19.0856 16.0104 19.0962C15.7397 19.31 15.3391 19.7103 15.1354 19.9641C14.8316 20.3447 14.5916 20.7491 14.4879 21.0597C14.3044 21.6206 14.3941 22.1878 14.7482 22.7119C15.2022 23.3797 16.1075 24.0612 17.1625 24.5253C17.7 24.7622 18.6047 25.0659 19.286 25.2362C20.4179 25.5237 22.6085 25.8341 23.8135 25.8809C24.0572 25.8909 24.3844 25.8909 24.3979 25.8809C24.4244 25.8641 24.6116 25.5072 24.8285 25.0628C25.5697 23.5503 26.1041 22.1312 26.3947 20.9191C26.5682 20.1847 26.7051 19.2062 26.7951 18.0475C26.8188 17.7237 26.8285 16.6387 26.8085 16.2716C26.7782 15.6706 26.7247 15.1828 26.6413 14.7053C26.6316 14.6541 26.6332 14.6291 26.6341 14.6059C29.3175 13.8087 32.2779 13.0866 34.2444 12.7856L34.5475 12.7387L34.5013 12.6656C34.2341 12.2516 34.0507 11.9937 33.83 11.72C33.1891 10.9253 32.411 10.2809 31.4594 9.74687C30.1504 9.01562 28.4575 8.44469 26.3141 8.02062C25.9104 7.94062 25.0229 7.78719 24.3016 7.67687L24.2341 7.55687C23.8401 6.8625 23.406 6.00094 23.1529 5.42C22.9557 4.96937 22.7685 4.44812 22.665 4.07406C22.6082 3.84719 22.6013 3.83375 22.565 3.83062L22.5647 3.83ZM22.511 4.00031H22.5147C22.5179 4.00344 22.5313 4.09781 22.5447 4.20781C22.6038 4.6863 22.7124 5.15737 22.8688 5.61344C22.9922 5.98094 22.9922 5.96031 22.8485 5.91656C22.5082 5.82344 20.9819 5.56031 19.8766 5.40656C19.6997 5.38312 19.5497 5.35969 19.5497 5.35656C19.536 5.34312 20.3479 4.91906 20.705 4.75219C21.1625 4.54187 22.4172 4.01719 22.511 4.00031ZM19.2929 5.49625L19.4229 5.53969C20.1307 5.78031 21.9104 6.12094 22.8919 6.20125C23.0019 6.21125 23.0957 6.22094 23.0988 6.22094C23.1022 6.22406 23.0091 6.27437 22.8888 6.33125C22.4264 6.56254 21.9739 6.81318 21.5325 7.0825C21.4695 7.12431 21.4035 7.1615 21.3351 7.19375L21.0054 7.14L20.6916 6.8325C20.2855 6.4369 19.8769 6.04376 19.466 5.65312L19.2929 5.49625ZM19.1591 5.6L19.6297 6.18781C19.8866 6.51156 20.1472 6.82844 20.2041 6.89875C20.255 6.96187 20.2885 7.00375 20.2944 7.01594C19.9619 6.95812 19.606 6.89781 19.3322 6.83906C19.1322 6.79531 18.7485 6.705 18.4479 6.60156L18.3479 6.56406V6.52844C18.351 6.30469 18.6347 5.97031 19.1157 5.63L19.1591 5.6ZM23.1591 6.40156C23.1729 6.40156 23.1894 6.43156 23.2294 6.52156C23.3429 6.77219 23.6969 7.44656 23.7838 7.57687L23.7947 7.59469C23.1644 7.49492 22.5345 7.39221 21.905 7.28656C21.9242 7.27057 21.9452 7.25694 21.9675 7.24594C22.3282 7.04383 22.669 6.8081 22.9854 6.54187C23.0622 6.47844 23.1322 6.41844 23.146 6.40812C23.1491 6.40156 23.1557 6.39812 23.1591 6.40156ZM18.6482 6.96531C18.6513 6.96219 18.7051 6.98219 18.7751 7.00594C18.9019 7.04906 19.0657 7.09937 19.2594 7.15281C19.4059 7.19302 19.5528 7.23188 19.7001 7.26937C19.9001 7.31937 20.0672 7.36625 20.0704 7.36625C20.0938 7.38969 20.431 8.46781 20.5444 8.88187C20.5879 9.03906 20.6219 9.1725 20.6185 9.1725C20.615 9.17562 20.5779 9.11937 20.5347 9.0425C20.1441 8.35469 19.5263 7.65687 18.8116 7.09594C18.7539 7.05661 18.6993 7.01294 18.6482 6.96531ZM20.2875 7.41656C20.2875 7.42312 20.2872 7.41969 20.2907 7.41969C20.3075 7.41969 20.3813 7.43 20.4713 7.45C21.0391 7.57687 22.0572 7.77031 22.7082 7.88031C22.8185 7.89719 22.9054 7.91687 22.9054 7.92375C22.9054 7.93031 22.8654 7.95375 22.8151 7.98031C22.5767 8.11284 22.3428 8.25334 22.1138 8.40156C21.7432 8.64844 21.4094 8.91562 21.1688 9.15594C21.1093 9.21555 21.0493 9.27461 20.9888 9.33312C20.9888 9.33312 20.9691 9.27594 20.9522 9.20594C20.8322 8.74187 20.5813 8.05437 20.3541 7.57031C20.3292 7.52029 20.307 7.46896 20.2875 7.41656ZM23.1825 7.97062C23.2025 7.9775 23.236 8.09062 23.3029 8.34125C23.4281 8.84094 23.482 9.35583 23.4632 9.87062C23.4566 10.0109 23.4497 10.1409 23.4432 10.1575L23.4329 10.1912L23.2594 10.1344C22.7827 9.98628 22.3039 9.84491 21.8232 9.71031C21.5394 9.63344 21.3094 9.56344 21.3094 9.55719C21.3094 9.53687 21.7232 9.1225 21.9 8.96562C22.2375 8.66844 23.1522 7.96062 23.1825 7.97062ZM23.4132 8.00437C23.4241 7.99437 24.7951 8.23125 25.4194 8.35125C25.8835 8.44187 26.5579 8.58156 26.5979 8.59812C26.6179 8.605 26.5479 8.645 26.3241 8.745C25.4429 9.1425 24.7888 9.5 24.1375 9.93406C23.9672 10.0475 23.8238 10.1409 23.8204 10.1409C23.8169 10.1409 23.8135 10.0441 23.8135 9.9275C23.8135 9.29312 23.6866 8.65219 23.4529 8.11094C23.4294 8.05781 23.4097 8.00781 23.4132 8.00437ZM26.9622 8.70562C26.9725 8.71562 26.9285 8.98531 26.8885 9.14562C26.7685 9.64312 26.4447 10.3816 26.0475 11.0762C25.9772 11.1997 25.9138 11.2997 25.9069 11.3031C25.9004 11.3066 25.8104 11.2562 25.7069 11.1956C25.3194 10.9687 24.8788 10.755 24.3975 10.555C24.2641 10.4981 24.1472 10.4519 24.1438 10.445C24.1204 10.425 25.196 9.71375 25.7638 9.37312C26.2144 9.09937 26.9491 8.69187 26.9622 8.70562ZM27.2157 8.74531C27.2457 8.74531 27.8538 8.9125 28.171 9.00594C28.9554 9.23969 29.8566 9.57 30.4444 9.83719L30.6882 9.9475L30.5182 9.98719C29.0825 10.3178 27.8535 10.6984 26.6682 11.1794C26.6057 11.2065 26.5421 11.2311 26.4775 11.2531C26.4713 11.2531 26.5044 11.1756 26.5479 11.0822C26.9051 10.3244 27.1357 9.53344 27.1925 8.85875C27.1957 8.79531 27.2057 8.74531 27.2157 8.74531ZM21.1657 10.1344C21.176 10.1244 21.6401 10.2344 21.8904 10.3047C22.271 10.4116 23.0788 10.6816 23.0788 10.7019C23.0788 10.7053 22.9888 10.7819 22.8819 10.8753C22.4444 11.2394 22.0235 11.6237 21.5194 12.1112C21.3691 12.255 21.2425 12.3712 21.236 12.3712C21.2294 12.3712 21.226 12.3509 21.2294 12.3244C21.3063 11.7634 21.2891 11.0425 21.1825 10.3112C21.1722 10.2178 21.1622 10.1378 21.1657 10.1344ZM30.9188 10.1441C30.925 10.1506 30.7047 10.4981 30.5647 10.6953C30.3644 10.9825 30.071 11.3634 29.4063 12.1978C29.1135 12.5653 28.8218 12.9338 28.5313 13.3031C28.3976 13.47 28.2875 13.6106 28.2841 13.6106C28.281 13.6106 28.2375 13.5506 28.1907 13.4769C27.8169 12.9162 27.3688 12.4253 26.8382 11.9847C26.7573 11.916 26.6749 11.849 26.5913 11.7837C26.5669 11.7676 26.5444 11.7486 26.5244 11.7272C26.5244 11.7172 27.0922 11.4734 27.5229 11.2997C28.3618 10.9623 29.2137 10.6581 30.0766 10.3878C30.481 10.2612 30.9116 10.1378 30.9185 10.1444L30.9188 10.1441ZM31.1757 10.2112C31.1888 10.2081 31.2694 10.2481 31.3663 10.3047C32.1775 10.7687 32.9722 11.3666 33.6 11.9806C33.7769 12.1544 34.2144 12.6087 34.2079 12.6119C34.2079 12.6119 34.0541 12.6253 33.8741 12.6387C32.4682 12.7456 30.6685 13.0422 28.9388 13.4597C28.8634 13.4779 28.7876 13.4948 28.7116 13.5103C28.705 13.5103 28.8354 13.3797 28.9991 13.2228C30.0141 12.2444 30.4782 11.6269 31.0254 10.525C31.1022 10.3616 31.1694 10.2216 31.1757 10.2112ZM23.7397 10.9725C23.7866 10.9825 24.2207 11.1859 24.5479 11.3497C24.8485 11.4997 25.2997 11.7403 25.3229 11.7603C25.3263 11.7634 25.166 11.8472 24.9691 11.9441C24.3806 12.2369 23.8047 12.5544 23.2429 12.8956C23.0825 12.9925 22.9491 13.0725 22.9457 13.0725C22.9322 13.0725 22.9354 13.0591 23.0257 12.8956C23.3263 12.3481 23.5663 11.6937 23.7032 11.0559C23.7166 11.0059 23.7297 10.9725 23.7397 10.9725ZM23.3057 11.0522C23.3157 11.0625 23.2025 11.4731 23.1325 11.6969C22.9767 12.1656 22.7789 12.6193 22.5416 13.0525C22.4882 13.1462 22.4082 13.2828 22.3647 13.3594L22.281 13.4931L22.0941 13.3131C21.8772 13.1028 21.6997 12.9722 21.4729 12.8553C21.3829 12.8084 21.3129 12.7684 21.3129 12.7619C21.3129 12.7353 21.8838 12.2181 22.3213 11.8441C22.635 11.5734 23.2957 11.0425 23.3057 11.0522ZM25.96 12.1444L26.1244 12.2509C26.5239 12.5131 26.9083 12.7974 27.276 13.1025C27.4666 13.2594 27.8338 13.59 27.9072 13.67L27.9469 13.7137L27.6766 13.7903C26.1472 14.2144 24.9657 14.5919 23.5866 15.0997C23.4329 15.1559 23.3029 15.2028 23.2929 15.2028C23.2729 15.2028 23.256 15.2197 23.6 14.9025C24.4813 14.0912 25.2625 13.1962 25.8438 12.325L25.96 12.1444ZM25.2625 12.3181C25.2694 12.325 24.8119 12.9694 24.5382 13.3331C24.1144 13.8885 23.6778 14.4339 23.2288 14.9691C23.0622 15.1659 22.9188 15.3294 22.9122 15.3328C22.9019 15.3359 22.8988 15.2859 22.8988 15.2094C22.8988 14.8053 22.795 14.375 22.6147 14.0075C22.5382 13.8544 22.5247 13.8169 22.5416 13.8C22.6051 13.7437 23.5766 13.1894 24.1907 12.8591C24.6051 12.6387 25.2525 12.3112 25.2625 12.3181ZM21.0419 13.3525C21.0522 13.3525 21.1294 13.3931 21.216 13.44C21.419 13.551 21.6112 13.6805 21.7904 13.8269C21.7966 13.8337 21.7104 13.9041 21.5966 13.9875C21.2314 14.2513 20.8719 14.5229 20.5185 14.8022C20.2244 15.0359 20.2141 15.0428 20.2472 14.9928C20.4679 14.6553 20.5779 14.4647 20.6947 14.2212C20.8022 13.9946 20.8959 13.7617 20.9754 13.5237C21.0019 13.4269 21.0354 13.3525 21.0419 13.3525ZM22.1607 14.2347H22.1675C22.1841 14.2316 22.2044 14.2609 22.2944 14.3947C22.4847 14.6781 22.6319 15.0591 22.6685 15.3666L22.6754 15.4334L22.2175 15.6103C21.3994 15.9275 20.6447 16.2409 20.1338 16.4747C19.9474 16.5623 19.7617 16.6514 19.5766 16.7419C19.4129 16.8253 19.2794 16.8887 19.2794 16.8856C19.2794 16.8822 19.3829 16.8056 19.5101 16.7122C20.5085 15.9875 21.3725 15.1931 22.0204 14.3981C22.0907 14.315 22.1538 14.2381 22.1607 14.2347ZM21.6497 14.3616C21.6632 14.3753 21.2829 14.8053 21.0226 15.0691C20.3782 15.7269 19.7397 16.2409 18.9485 16.7419C18.8485 16.8053 18.7585 16.8622 18.7485 16.8691C18.725 16.8822 18.755 16.8491 19.1022 16.4716C19.3059 16.253 19.4986 16.0245 19.6797 15.7869C19.8066 15.6231 19.8304 15.6003 20.0141 15.47C20.5047 15.1159 21.6366 14.3481 21.6497 14.3616ZM26.1207 14.7597C26.1654 14.8706 26.2591 15.7822 26.2844 16.3909C26.291 16.5281 26.2879 16.6187 26.2813 16.6187C26.2544 16.6187 25.7166 16.3012 25.3329 16.0609C25 15.8516 24.3716 15.4347 24.2675 15.3522C24.8821 15.145 25.4999 14.9475 26.1207 14.7597ZM23.9088 15.4797C23.9526 15.4984 24.0182 15.5347 24.151 15.6166C24.8385 16.0472 25.7738 16.5684 26.1744 16.7419C26.2979 16.7953 26.3113 16.7753 26.0275 16.9691C25.4197 17.3831 24.6619 17.7909 23.7338 18.2012C23.6335 18.247 23.5321 18.2904 23.4297 18.3312C23.4232 18.3312 23.4429 18.2478 23.4694 18.1478C23.6932 17.3162 23.8204 16.475 23.8269 15.8003C23.8288 15.6322 23.8294 15.5494 23.8338 15.5066L23.9088 15.4797ZM23.3966 15.6622C23.4141 15.7237 23.4019 16.4109 23.376 16.6084C23.3166 17.1007 23.2139 17.5867 23.0691 18.0609C23.0322 18.1844 22.9988 18.2881 22.9919 18.2947C22.9785 18.3112 22.5216 17.8641 22.3713 17.6906C22.111 17.39 21.9069 17.0894 21.7566 16.7956C21.6844 16.6541 21.5807 16.4006 21.5766 16.3619C22.05 16.1694 22.5397 15.9775 23.0557 15.7837C23.1616 15.7441 23.2863 15.7025 23.3966 15.6622ZM21.2269 16.5081C21.2354 16.5212 21.2541 16.5637 21.2725 16.6187C21.3794 16.9094 21.6197 17.3369 21.8269 17.6106C22.0538 17.9109 22.3513 18.2309 22.5985 18.4412C22.6785 18.5081 22.7516 18.5716 22.7613 18.5819C22.7816 18.6016 22.7888 18.5987 22.2444 18.8056C21.6135 19.0462 20.9257 19.2859 20.1375 19.54C19.9491 19.6006 19.7609 19.6618 19.5729 19.7234C19.5429 19.7334 19.5532 19.7172 19.6401 19.5803C20.0307 18.9694 20.625 17.7709 20.9588 16.9228C21.0157 16.7756 21.0722 16.6281 21.0822 16.5947C21.0863 16.5806 21.0929 16.5728 21.0979 16.5634C21.1416 16.5447 21.1829 16.5266 21.2269 16.5081ZM20.53 16.8062C20.515 16.8594 20.3716 17.1609 20.2175 17.4634C19.8935 18.0947 19.5394 18.7153 19.0657 19.4697C18.9854 19.6 18.9085 19.7206 18.8985 19.7341C18.8816 19.7572 18.8757 19.7509 18.8222 19.6472C18.7088 19.4234 18.6147 19.1359 18.5644 18.8722C18.5144 18.6116 18.525 18.1578 18.5816 17.8772C18.6069 17.7566 18.6182 17.7094 18.6416 17.6794C19.2632 17.3716 19.8929 17.0805 20.53 16.8062ZM26.3044 17.0056V17.1462C26.3044 17.8906 26.2241 18.9125 26.1075 19.6572C26.0872 19.7872 26.0707 19.8941 26.0675 19.8978C26.0675 19.8978 25.9707 19.8706 25.8569 19.8372C25.3247 19.6681 24.8102 19.4476 24.3207 19.1791C23.9969 19.0025 23.5263 18.7122 23.5394 18.6987C23.5429 18.6956 23.6835 18.6222 23.8472 18.5353C24.5016 18.1947 25.1288 17.8275 25.6732 17.4634C25.8769 17.3266 26.1838 17.1062 26.2507 17.0459L26.3044 17.0056ZM18.0251 18.0006C18.0338 18.0062 18.0313 18.0334 18.0135 18.1409C17.9967 18.2597 17.9845 18.3791 17.9769 18.4987C17.9501 18.9862 18.0307 19.3469 18.271 19.8406C18.3379 19.9778 18.391 20.0906 18.3876 20.0941C18.3641 20.1144 16.1544 20.7619 15.4594 20.9522C15.2526 21.0087 15.0722 21.0594 15.0588 21.0628C15.0357 21.0694 15.0322 21.0659 15.0422 21.0091C15.1191 20.5184 15.4929 19.8775 16.0141 19.3366C16.361 18.9759 16.6379 18.7653 17.1119 18.495C17.3312 18.371 17.5521 18.2497 17.7744 18.1312C17.856 18.0875 17.9419 18.0441 18.0251 18.0006ZM23.2325 18.9256C23.2357 18.9225 23.316 18.9662 23.4125 19.0228C24.1272 19.4369 25.1225 19.8206 25.9707 20.0178L26.0475 20.0344L25.9401 20.0941C25.4963 20.3409 24.0369 20.9487 22.5447 21.5066C22.3275 21.5866 22.1144 21.6669 22.0741 21.6834C22.0341 21.7003 21.9972 21.7103 21.9972 21.7072C21.9972 21.7041 22.0572 21.5872 22.1338 21.4434C22.5513 20.6622 22.9716 19.7103 23.1857 19.0491C23.2122 18.9856 23.2291 18.9291 23.2325 18.9256ZM22.7013 19.0991C22.705 19.1025 22.6782 19.1728 22.645 19.2531C22.3544 19.9575 21.9735 20.7256 21.4863 21.5869C21.3625 21.8075 21.2597 21.9844 21.2563 21.9844C21.2529 21.9844 21.1525 21.9241 21.0322 21.8506C20.3241 21.4162 19.6966 20.8825 19.286 20.365L19.2257 20.2912L19.5294 20.2075C20.6182 19.9106 21.5425 19.59 22.461 19.1962C22.5913 19.1428 22.6985 19.0994 22.7016 19.0994L22.7013 19.0991ZM26.0004 20.2516C26.0035 20.3291 25.8335 21.0159 25.6935 21.5131C25.5683 21.9565 25.4346 22.3974 25.2925 22.8356C25.2125 23.0897 25.1425 23.2997 25.1394 23.2997C25.1245 23.298 25.1099 23.2947 25.0957 23.29C24.1041 23.1097 23.2157 22.8587 22.381 22.525C22.1472 22.4316 21.8135 22.2812 21.7935 22.2644C21.7866 22.2578 21.9872 22.1644 22.2407 22.0544C23.76 21.39 25.3363 20.6353 25.8772 20.3112C25.9404 20.2712 25.9904 20.2516 26.0004 20.2516ZM18.3847 20.5116C18.391 20.5184 17.9669 21.1291 17.3726 21.9606C17.1657 22.2512 16.9257 22.5916 16.8354 22.7184C16.7311 22.8655 16.6299 23.0147 16.5316 23.1659L16.391 23.3831L16.241 23.2562C16.0641 23.1094 15.7566 22.7956 15.6197 22.6219C15.3322 22.2647 15.1391 21.8875 15.0622 21.5437C15.0254 21.3834 15.0254 21.3031 15.0588 21.2934C15.1088 21.28 16.0007 21.0697 16.8354 20.8759C17.2341 20.784 17.6324 20.6905 18.0304 20.5953C18.2241 20.5484 18.3816 20.5116 18.3847 20.5116ZM18.8116 20.675L18.9185 20.7953C19.3994 21.3328 19.8904 21.7306 20.4847 22.0778C20.5913 22.1378 20.6716 22.1909 20.6647 22.1944C20.6413 22.2112 18.6013 22.9356 17.6563 23.2631C17.3331 23.3775 17.0091 23.4898 16.6844 23.6C16.6813 23.6 16.6516 23.58 16.6182 23.5566L16.5579 23.5131L16.6547 23.3728C16.9685 22.9187 17.3626 22.4212 18.221 21.3862L18.8116 20.675ZM21.4766 22.5819C21.4797 22.5787 21.6266 22.6319 21.8066 22.6984C22.241 22.8622 22.5847 22.9656 23.0457 23.0825C23.6135 23.2262 24.4347 23.3662 24.9188 23.4066C24.9922 23.4128 25.0322 23.4203 25.0188 23.4303C24.9957 23.4437 24.5044 23.6072 24.1438 23.7209C23.5694 23.9009 21.8169 24.4184 20.3875 24.8291C20.1238 24.9059 19.8969 24.9697 19.8835 24.9728C19.8504 24.9794 19.7401 24.9491 19.7401 24.9359C19.7401 24.9294 19.8204 24.8256 19.9172 24.7119C20.4037 24.1308 20.8562 23.522 21.2725 22.8887C21.3829 22.7219 21.4766 22.5853 21.4766 22.5819ZM20.8888 22.5984V22.5991C20.8919 22.6022 20.6544 22.9828 20.2407 23.6372C20.0638 23.9141 19.8669 24.2281 19.7969 24.3384C19.73 24.4453 19.6294 24.6119 19.5729 24.7053L19.4763 24.8756L19.4263 24.8622C19.3063 24.8287 18.461 24.5319 18.2376 24.4416C17.9724 24.3358 17.7128 24.2167 17.4597 24.0847C17.1925 23.9409 16.8588 23.7269 16.8854 23.7203C16.8922 23.7169 17.3491 23.5931 17.8997 23.4431C19.3622 23.0456 20.1741 22.8153 20.705 22.6484C20.8019 22.6184 20.8854 22.595 20.8888 22.5984ZM25.046 23.5734H25.0491C25.0622 23.6069 24.5216 25.1094 24.3244 25.5834C24.2813 25.6903 24.2641 25.7169 24.241 25.7134C24.1841 25.7103 23.3994 25.6006 22.9219 25.5306C22.0907 25.4037 20.6947 25.1594 20.3444 25.0794L20.2644 25.0622L20.7619 24.9497C21.8307 24.7091 22.3441 24.5787 22.865 24.4184C23.5375 24.2121 24.1947 23.9588 24.8316 23.6603C24.935 23.6134 25.0222 23.5766 25.046 23.5734ZM11.8569 25.1891C11.7194 25.1891 11.6069 25.2306 11.5144 25.3172C11.4069 25.4194 11.3497 25.5516 11.3497 25.7312V25.9931H11.0797V26.2078H11.3497V27.5844L11.3513 27.5837H11.6072V26.2019H11.9807V25.9869H11.6072V25.7403C11.6072 25.5159 11.6935 25.4041 11.8732 25.4041C11.9335 25.4041 11.9954 25.4194 12.041 25.445V25.2144C11.9954 25.1937 11.9338 25.1894 11.8566 25.1894L11.8569 25.1891ZM3.19911 25.2497C3.17742 25.2489 3.15579 25.2526 3.13561 25.2606C3.11544 25.2686 3.09715 25.2808 3.08193 25.2962C3.06595 25.3114 3.05316 25.3296 3.0443 25.3498C3.03545 25.37 3.03071 25.3917 3.03036 25.4137C3.03036 25.4647 3.04599 25.5003 3.08193 25.5309C3.11345 25.5611 3.15546 25.5779 3.19911 25.5778H3.19974C3.22146 25.5786 3.2431 25.5748 3.26328 25.5667C3.28345 25.5587 3.30173 25.5465 3.31693 25.5309C3.33306 25.5159 3.34599 25.4978 3.3549 25.4777C3.36382 25.4575 3.36855 25.4358 3.3688 25.4137C3.36973 25.3916 3.36563 25.3695 3.35681 25.3492C3.34799 25.3288 3.33467 25.3107 3.31786 25.2962C3.30213 25.281 3.28353 25.2691 3.26315 25.2611C3.24277 25.2531 3.221 25.2492 3.19911 25.2497ZM25.0697 25.2759V25.3475H25.2588V25.9212H25.3304V25.3475H25.52V25.2759H25.0697ZM25.6172 25.2759V25.9212H25.6885V25.4906L25.6935 25.4894C25.6935 25.4341 25.6935 25.3881 25.6891 25.3622C25.6938 25.3925 25.7047 25.4134 25.7094 25.4287L25.9291 25.9209H25.9644L26.1854 25.4241C26.1916 25.4091 26.196 25.3884 26.2057 25.3622C26.202 25.4032 26.2003 25.4444 26.2007 25.4856V25.92H26.2769V25.2756H26.1854L25.9854 25.7206C25.9807 25.7362 25.965 25.7672 25.9554 25.8025H25.9485C25.9447 25.7819 25.9347 25.7609 25.92 25.7259L25.72 25.2759H25.6172ZM0.232863 25.3484V27.585H0.484113V26.0859L0.488488 26.0847C0.488488 25.8847 0.482238 25.7359 0.47755 25.6487H0.482238C0.50255 25.7519 0.528175 25.8291 0.5488 25.88L1.3113 27.5844H1.43943L2.20224 25.865C2.22318 25.8181 2.24349 25.7475 2.2688 25.6494H2.27443C2.26129 25.7945 2.25452 25.9402 2.25411 26.0859V27.5891H2.51536V25.3541H2.18755L1.4863 26.9094C1.46047 26.9708 1.42463 27.0627 1.3788 27.185H1.3688C1.34162 27.094 1.30756 27.0052 1.26693 26.9194L0.580988 25.3484H0.232863ZM12.655 25.5159C12.5675 25.5462 12.4813 25.5722 12.3994 25.5975V25.9866H12.1244V26.2012H12.3994V27.1481H12.4007C12.4007 27.4606 12.5382 27.62 12.82 27.62C12.9222 27.62 12.9988 27.6034 13.0607 27.5669V27.3475C13.0131 27.3824 12.9553 27.4006 12.8963 27.3994C12.8094 27.3994 12.7482 27.3784 12.7126 27.3322C12.676 27.2862 12.655 27.2091 12.655 27.1022V26.2012H13.0604V25.9866H12.655V25.5159ZM13.7104 25.6544C13.5813 25.6544 13.4751 25.6956 13.3882 25.7825C13.3001 25.8694 13.2601 25.9762 13.2601 26.0994C13.2601 26.2284 13.3013 26.3353 13.3882 26.4162C13.4704 26.4984 13.5769 26.5394 13.705 26.5394V26.5406C13.8329 26.5406 13.9394 26.4994 14.0269 26.4112C14.0699 26.3705 14.1039 26.3213 14.1269 26.2668C14.1498 26.2123 14.1612 26.1535 14.1604 26.0944C14.1604 25.9662 14.1144 25.86 14.0272 25.7778C13.9853 25.7371 13.9357 25.7052 13.8813 25.684C13.8269 25.6628 13.7687 25.6528 13.7104 25.6544ZM13.7104 25.7006C13.8219 25.7006 13.9151 25.7366 13.9926 25.8125C14.0688 25.8891 14.1097 25.9819 14.1097 26.0944C14.1105 26.1475 14.1006 26.2003 14.0804 26.2495C14.0603 26.2987 14.0304 26.3433 13.9926 26.3806C13.9556 26.4176 13.9116 26.4466 13.863 26.4659C13.8145 26.4853 13.7626 26.4945 13.7104 26.4931C13.5972 26.4931 13.5051 26.4581 13.4291 26.3806C13.3913 26.3433 13.3614 26.2987 13.3412 26.2495C13.3211 26.2003 13.3111 26.1475 13.3119 26.0944C13.3119 25.9819 13.3463 25.8891 13.4229 25.8125C13.4991 25.7366 13.5919 25.7006 13.7104 25.7006ZM13.5207 25.8028V26.3759H13.6026V26.1353L13.6119 26.1359H13.6641C13.7007 26.1359 13.7366 26.1709 13.7672 26.2378L13.8288 26.3759H13.9254L13.8491 26.2219C13.8179 26.1603 13.7879 26.125 13.7522 26.1153C13.7972 26.1047 13.8332 26.0894 13.8585 26.0591C13.8709 26.0451 13.8804 26.0287 13.8864 26.011C13.8924 25.9933 13.8948 25.9746 13.8935 25.9559C13.8948 25.9356 13.8914 25.9153 13.8834 25.8965C13.8755 25.8777 13.8633 25.8611 13.8479 25.8478C13.8126 25.8184 13.7563 25.8028 13.6835 25.8028H13.5207ZM13.6113 25.8694H13.6841C13.7357 25.8694 13.7719 25.8797 13.7922 25.895C13.8113 25.91 13.8172 25.93 13.8172 25.9662C13.8172 26.0328 13.7757 26.0641 13.6994 26.0641H13.6116L13.6113 25.8694ZM7.06849 25.9456C6.82786 25.9456 6.63411 26.0175 6.49036 26.1559C6.33693 26.3084 6.25568 26.5244 6.25568 26.8006C6.25568 27.0412 6.3213 27.2406 6.46005 27.3891C6.60318 27.5428 6.79286 27.6197 7.03318 27.6197L7.03255 27.6203C7.27318 27.6203 7.46693 27.5428 7.61068 27.3891C7.7538 27.2366 7.82536 27.0309 7.82536 26.775C7.82536 26.5141 7.75974 26.3144 7.62568 26.1656C7.49286 26.0175 7.30911 25.9456 7.06849 25.9456ZM10.1651 25.9456L10.1638 25.9462C9.92317 25.9462 9.72943 26.0178 9.58568 26.1562C9.43318 26.3091 9.3513 26.5244 9.3513 26.8006C9.3513 27.0412 9.41724 27.2406 9.55505 27.3891C9.6988 27.5428 9.88817 27.6197 10.1288 27.6197C10.375 27.6197 10.5632 27.5422 10.7069 27.3884C10.8507 27.2351 10.9226 27.0304 10.9226 26.7744C10.9226 26.5134 10.8551 26.3141 10.7222 26.165C10.5841 26.0169 10.3997 25.9456 10.1651 25.9456ZM4.55036 25.9462C4.29474 25.9462 4.09505 26.0281 3.94599 26.1869C3.79818 26.345 3.72193 26.5603 3.72193 26.8203C3.72193 27.0516 3.78849 27.2459 3.92661 27.3944C4.07036 27.5469 4.2538 27.6247 4.4788 27.6247C4.65318 27.6197 4.79536 27.5831 4.9188 27.5116V27.2662C4.79536 27.3584 4.66318 27.4044 4.52599 27.4044C4.36193 27.4044 4.22818 27.3481 4.13099 27.24C4.03411 27.1331 3.98193 26.985 3.98193 26.8C3.98193 26.6062 4.03443 26.4522 4.1413 26.335C4.2438 26.2225 4.37672 26.1661 4.54005 26.1659C4.67318 26.1659 4.80068 26.2075 4.9188 26.2897V26.0278C4.8113 25.9716 4.68943 25.9462 4.55036 25.9462ZM8.67505 25.9528C8.51099 25.9528 8.37224 25.9981 8.27036 26.0853C8.21984 26.1244 8.17917 26.1748 8.15161 26.2324C8.12404 26.29 8.11035 26.3533 8.11161 26.4172C8.11161 26.5344 8.14661 26.6319 8.21349 26.7034C8.26974 26.7644 8.36661 26.8269 8.50036 26.8825C8.62849 26.9387 8.71474 26.9894 8.76099 27.0306C8.78258 27.0497 8.79974 27.0732 8.81124 27.0996C8.82274 27.126 8.82831 27.1546 8.82755 27.1834C8.82755 27.3325 8.72536 27.4097 8.52599 27.4097C8.37245 27.4099 8.23411 27.3591 8.11099 27.2572V27.5322C8.22255 27.5997 8.35661 27.63 8.50474 27.63C8.69411 27.62 8.84224 27.5737 8.94411 27.4819L8.94599 27.4812C9.04349 27.3944 9.09505 27.2872 9.09505 27.1531C9.09613 27.0991 9.08625 27.0454 9.066 26.9953C9.04575 26.9452 9.01555 26.8997 8.97724 26.8616C8.91474 26.8 8.81943 26.7447 8.68005 26.6884C8.55693 26.6369 8.48068 26.5912 8.43943 26.5553C8.41739 26.534 8.40008 26.5083 8.38861 26.4799C8.37714 26.4515 8.37178 26.4209 8.37286 26.3903C8.37286 26.3241 8.39849 26.2737 8.44911 26.2325C8.50068 26.1916 8.56693 26.1712 8.65505 26.1712C8.79255 26.1712 8.91068 26.2078 9.01818 26.285V26.0287C8.91143 25.9766 8.79383 25.9506 8.67505 25.9528ZM5.98349 25.9612C5.8913 25.9612 5.80943 25.9925 5.73661 26.0494C5.66068 26.1097 5.60005 26.2019 5.56411 26.3191H5.55786V25.9925H5.30286V27.5884H5.55849V26.7697L5.56411 26.7687C5.56411 26.5853 5.60474 26.4375 5.6813 26.335C5.75297 26.2429 5.84005 26.1967 5.94255 26.1962C6.02943 26.1962 6.09099 26.2122 6.13599 26.2481V25.9816C6.10099 25.9659 6.04974 25.9612 5.98349 25.9612ZM3.08724 26.0884V27.4812H3.31224V26.0884H3.08724ZM10.1538 26.1609C10.3122 26.1609 10.4394 26.2119 10.5319 26.3141C10.6135 26.4266 10.6601 26.5806 10.6601 26.7853H10.6607C10.6607 26.98 10.6191 27.1334 10.5325 27.2359C10.4454 27.3434 10.3175 27.4 10.1482 27.4C9.98411 27.4 9.85724 27.3434 9.75974 27.2359C9.66286 27.1281 9.61599 26.98 9.61599 26.7853C9.61599 26.58 9.66724 26.4209 9.77005 26.3141C9.86693 26.212 9.99484 26.1609 10.1538 26.1609ZM7.05286 26.1659C7.21724 26.1659 7.34036 26.2169 7.43161 26.3197C7.5238 26.4272 7.56974 26.58 7.56974 26.7853C7.56974 26.9797 7.52849 27.1334 7.44161 27.2359C7.35505 27.3434 7.22724 27.4 7.05818 27.4C6.89411 27.4 6.7663 27.3434 6.6688 27.2359C6.57193 27.1281 6.52599 26.98 6.52599 26.7853C6.51599 26.5916 6.56693 26.4331 6.6688 26.3197C6.7663 26.217 6.89432 26.1657 7.05286 26.1659ZM2.15005 28.1862C1.13755 28.1712 0.482238 28.5031 0.175675 29.1791C-0.275262 30.1769 0.124113 30.9291 1.5663 31.7681C2.3763 32.2391 2.73349 32.6487 2.73349 33.0947C2.73349 34.0159 1.62318 34.3375 0.477238 33.7594C0.241613 33.6419 0.0419253 33.5437 0.0309878 33.5437C-0.0102622 33.805 0.0106753 34.43 0.0106753 34.43C0.0106753 34.43 0.363488 34.5781 0.891613 34.68C2.20099 34.9412 3.39318 34.3266 3.50568 33.3291C3.6038 32.3925 3.26474 31.9012 1.98161 31.1347V31.1353C1.12724 30.6175 0.748488 30.2447 0.79505 29.8041C0.92755 28.5866 2.43161 28.7553 3.26505 29.2159L3.2713 28.3966C3.2713 28.3966 2.81036 28.1966 2.15005 28.1862ZM7.19068 28.1862V28.1869C7.12911 28.1869 7.06755 28.1931 7.00661 28.1931C5.76286 28.2591 4.92349 28.8069 4.43286 29.8762C4.01318 30.8431 4.05911 32.1069 4.43755 33.08C4.87755 34.0306 5.5888 34.5325 6.77599 34.7219C7.02693 34.7631 7.19536 34.9003 7.68224 35.4681L8.28036 36.17H9.3663L8.64443 35.4419C8.24505 35.0431 7.92255 34.6956 7.92255 34.665C7.92255 34.6347 8.07536 34.5681 8.26005 34.5119C8.86943 34.3275 9.37474 33.8569 9.7288 33.1356C10.0151 32.5566 10.0563 32.3772 10.0976 31.6566C10.2047 29.5119 9.0738 28.1709 7.19068 28.1862ZM18.3097 28.1972C17.2966 28.1822 16.6419 28.5141 16.3347 29.19C15.8844 30.1875 16.2888 30.94 17.7263 31.7794C18.5351 32.25 18.8926 32.6544 18.8926 33.1C18.8926 34.0212 17.7822 34.3481 16.6363 33.7647C16.4016 33.6475 16.2019 33.5506 16.1907 33.5506C16.1497 33.8116 16.1704 34.4369 16.1704 34.4369C16.1704 34.4369 16.5188 34.5787 17.0454 34.6862C18.356 34.9478 19.5479 34.3344 19.6604 33.3369C19.7575 32.405 19.4201 31.9141 18.1407 31.1462V31.145C17.2863 30.6287 16.9082 30.2544 16.9541 29.8137C17.0866 28.5962 18.591 28.7653 19.4241 29.2256L19.4304 28.4066C19.4304 28.4066 18.9697 28.2066 18.3097 28.1972ZM11.0788 28.2637V34.5887H14.4201V33.8419H11.8732V28.2637H11.0788ZM7.13443 28.8519C8.45505 28.8519 9.2063 29.6603 9.30443 31.18C9.38193 32.4487 8.95693 33.4006 8.14349 33.7953L8.14286 33.7959C7.61474 34.0516 6.84786 34.1022 6.34724 33.9184C5.82974 33.7284 5.32849 33.1916 5.10349 32.5831C4.85286 31.9175 4.8888 30.6894 5.17536 30.1369C5.63568 29.2566 6.24443 28.8519 7.13443 28.8519ZM33.871 29.9675C33.7071 29.9696 33.5439 29.9885 33.3838 30.0237C32.3307 30.2997 31.7369 31.3094 31.7776 32.3481C31.7776 33.2166 31.9463 33.6475 32.366 34.1028C33.2254 34.8091 34.0035 34.865 35.0575 34.4862C35.1822 34.433 35.3065 34.3788 35.4304 34.3237V33.6169L35.0569 33.8119C34.206 34.1806 33.5663 34.1803 33.0557 33.7447C32.7272 33.4125 32.585 33.0181 32.5182 32.5572H35.691V31.9531C35.691 30.7269 34.9488 29.9481 33.8691 29.9687L33.871 29.9675ZM39.546 29.9675C39.4169 29.9675 39.31 30.0087 39.2232 30.0966C39.1363 30.1828 39.095 30.2903 39.095 30.4134C39.095 30.5416 39.1363 30.6481 39.2225 30.7306C39.309 30.8127 39.4166 30.8536 39.5454 30.8534C39.6725 30.8534 39.7797 30.8125 39.8682 30.7253C39.9544 30.6378 40.0001 30.5366 40.0001 30.4091C39.9954 30.28 39.9491 30.1728 39.8622 30.0909L39.8629 30.0903C39.8209 30.0498 39.7712 30.0181 39.7168 29.997C39.6624 29.976 39.6043 29.9658 39.546 29.9675ZM22.265 29.9781C22.1034 29.9798 21.9424 29.9987 21.7847 30.0344C20.7304 30.3103 20.136 31.3194 20.1722 32.3578C20.1722 33.2275 20.3419 33.6628 20.7613 34.1187C21.6207 34.8241 22.3982 34.88 23.4472 34.5016C23.626 34.4253 23.8216 34.3372 23.8216 34.3372V33.6316L23.4472 33.8256C22.5982 34.1953 21.9591 34.1953 21.4466 33.76C21.12 33.4272 20.9754 33.0284 20.9094 32.5725H24.0869V31.9687C24.0869 30.7369 23.3457 29.9591 22.2663 29.9781H22.2657H22.265ZM38.501 30.0087C38.0457 30.0087 37.6932 30.1931 37.4622 30.5569L37.2779 30.8431V30.0962H36.49V34.5784H37.2775V33.1459C37.2775 31.8359 37.2932 31.6822 37.4769 31.3241C37.7294 30.8331 38.1641 30.5875 38.5835 30.7056L38.8647 30.7875V30.0087H38.501ZM39.54 30.015C39.6516 30.015 39.7444 30.0494 39.8219 30.1259C39.8979 30.2034 39.9391 30.2959 39.9391 30.4072C39.9391 30.5262 39.9038 30.6178 39.8219 30.6953C39.7851 30.7322 39.741 30.7611 39.6926 30.7803C39.6441 30.7995 39.5922 30.8085 39.54 30.8069C39.4285 30.8069 39.336 30.7716 39.2588 30.6953C39.2209 30.6577 39.1909 30.6129 39.1708 30.5635C39.1506 30.5141 39.1405 30.4612 39.1413 30.4078C39.1413 30.2962 39.1766 30.2034 39.2538 30.1259C39.33 30.0497 39.4222 30.015 39.54 30.015ZM26.896 30.0191C26.4407 30.0191 26.0919 30.2034 25.8569 30.5666L25.6725 30.8541V30.1062H24.8854V34.5894H25.6729V33.1562C25.6729 31.8459 25.6891 31.6928 25.8722 31.3344C26.1244 30.8425 26.5585 30.5975 26.9785 30.7147L27.2597 30.7972V30.0203H26.8966L26.896 30.0191ZM27.5097 30.1009C28.0436 31.6063 28.6032 33.1023 29.1885 34.5884C29.4394 34.5944 29.6904 34.5884 29.941 34.5884L30.8254 32.3675L31.7254 30.1012H30.9485C30.9485 30.1012 30.6047 31.0019 30.2466 32.01L30.2479 32.0094L29.5929 33.7134L28.9632 31.9997L28.3235 30.1006L27.5097 30.1009ZM39.361 30.1222V30.6947H39.4435V30.4534H39.4947C39.5297 30.4534 39.5647 30.4894 39.5966 30.5562L39.6579 30.6941H39.7554L39.6791 30.5403C39.6529 30.4744 39.6222 30.4444 39.5916 30.4341C39.632 30.4258 39.6693 30.4063 39.6991 30.3778C39.7241 30.3495 39.7369 30.3124 39.7347 30.2747C39.7359 30.2544 39.7324 30.2342 39.7244 30.2155C39.7164 30.1969 39.7042 30.1803 39.6888 30.1672C39.6535 30.1378 39.5969 30.1222 39.5247 30.1222H39.361ZM39.4472 30.1887H39.5197C39.571 30.1887 39.6066 30.1981 39.6272 30.2137C39.6479 30.2294 39.6522 30.2491 39.6522 30.2856C39.6522 30.3519 39.611 30.3825 39.535 30.3825H39.4472V30.1887ZM33.8241 30.6387C34.0591 30.6387 34.2947 30.7144 34.4891 30.8631C34.8882 31.1703 34.9557 31.9281 34.9557 31.9281H32.5869C32.5894 31.9131 32.7088 31.1625 33.1391 30.8581C33.3392 30.7158 33.5786 30.6394 33.8241 30.6387ZM22.2194 30.6537C22.4599 30.6536 22.6937 30.7326 22.8847 30.8787C23.2838 31.1859 23.3504 31.9381 23.3504 31.9381H20.9822C20.9847 31.9212 21.1032 31.1716 21.5338 30.8734C21.7341 30.731 21.9737 30.6543 22.2194 30.6537Z" fill="#03021d"/>
</g>
<defs>
<clipPath id="clip0_33_39">
<rect width="40" height="40" fill="white"/>
</clipPath>
</defs>
</svg>
