<svg width="54" height="54" viewBox="0 0 54 54" fill="none" xmlns="http://www.w3.org/2000/svg">
<g clip-path="url(#clip0_44_63)">
<path d="M1.19115 26.3873C1.1899 30.8751 2.36253 35.2571 4.59225 39.1195L0.977905 52.3161L14.4829 48.775C18.2183 50.8085 22.4034 51.874 26.6564 51.8743H26.6675C40.7073 51.8743 52.1361 40.4497 52.1421 26.4074C52.1448 19.6029 49.4972 13.2044 44.6871 8.39054C39.8778 3.57708 33.4815 0.924805 26.6665 0.9217C12.625 0.9217 1.19715 12.3457 1.19135 26.3873" fill="url(#paint0_linear_44_63)"/>
<path d="M0.281582 26.379C0.280132 31.0283 1.49478 35.5671 3.804 39.5677L0.0600586 53.2374L14.0493 49.5694C17.9038 51.671 22.2436 52.779 26.6596 52.7807H26.671C41.2145 52.7807 53.0537 40.9451 53.06 26.4002C53.0624 19.3512 50.3197 12.7227 45.3377 7.73633C40.3551 2.75061 33.7301 0.00289843 26.671 0C12.125 0 0.287378 11.8339 0.281582 26.379ZM8.61271 38.8787L8.09037 38.0496C5.8946 34.5582 4.73564 30.5236 4.7373 26.3807C4.74185 14.2911 14.5808 4.4553 26.6793 4.4553C32.5382 4.45779 38.0444 6.74175 42.1859 10.8857C46.3271 15.03 48.6059 20.5391 48.6044 26.3985C48.5991 38.4881 38.7599 48.3251 26.671 48.3251H26.6623C22.726 48.3231 18.8655 47.266 15.4988 45.2683L14.6976 44.7932L6.39603 46.9697L8.61271 38.8787Z" fill="url(#paint1_linear_44_63)"/>
<path d="M20.0755 15.3509C19.5815 14.253 19.0616 14.2309 18.5919 14.2116C18.2072 14.1951 17.7675 14.1963 17.3282 14.1963C16.8884 14.1963 16.174 14.3617 15.5701 15.0211C14.9655 15.6811 13.2621 17.2761 13.2621 20.5201C13.2621 23.764 15.6249 26.8993 15.9543 27.3397C16.2841 27.7792 20.5158 34.6493 27.2178 37.2923C32.7878 39.4887 33.9213 39.0518 35.1301 38.9417C36.3392 38.8319 39.0314 37.3471 39.5807 35.8074C40.1303 34.268 40.1303 32.9483 39.9655 32.6726C39.8008 32.3978 39.361 32.2328 38.7016 31.9032C38.0422 31.5737 34.8003 29.9783 34.196 29.7582C33.5915 29.5383 33.152 29.4286 32.7122 30.0888C32.2725 30.748 31.0098 32.2328 30.6249 32.6726C30.2405 33.1133 29.8556 33.1682 29.1964 32.8384C28.5366 32.5076 26.4131 31.8122 23.8937 29.5661C21.9336 27.8183 20.6102 25.66 20.2256 24.9998C19.8409 24.3406 20.1844 23.9833 20.515 23.6547C20.8113 23.3593 21.1746 22.8848 21.5046 22.4999C21.8334 22.1148 21.9431 21.8401 22.163 21.4004C22.383 20.9602 22.2729 20.5751 22.1083 20.2453C21.9431 19.9155 20.6618 16.6546 20.0755 15.3509Z" fill="white"/>
</g>
<defs>
<linearGradient id="paint0_linear_44_63" x1="2559.19" y1="5140.36" x2="2559.19" y2="0.9217" gradientUnits="userSpaceOnUse">
<stop stop-color="#1FAF38"/>
<stop offset="1" stop-color="#60D669"/>
</linearGradient>
<linearGradient id="paint1_linear_44_63" x1="2650.05" y1="5323.74" x2="2650.05" y2="0" gradientUnits="userSpaceOnUse">
<stop stop-color="#F9F9F9"/>
<stop offset="1" stop-color="white"/>
</linearGradient>
<clipPath id="clip0_44_63">
<rect width="53" height="53.414" fill="white" transform="translate(0.0600586)"/>
</clipPath>
</defs>
</svg>
