<svg width="40" height="40" viewBox="0 0 40 40" fill="none" xmlns="http://www.w3.org/2000/svg">
<g clip-path="url(#clip0_33_25)">
<path d="M38.8947 12.3628C39.5166 12.3628 40 12.8466 40 13.4684C40 14.0903 39.5166 14.5741 38.8947 14.5741C38.2729 14.5741 37.7891 14.0903 37.7891 13.4684C37.7891 12.9153 38.2725 12.3628 38.8947 12.3628ZM34.8872 12.3628C35.5088 12.3628 35.9929 12.8466 35.9929 13.4684C35.9929 14.0903 35.5091 14.5741 34.8872 14.5741C34.2654 14.5741 33.7816 14.0903 33.7816 13.4684C33.7816 12.9153 34.2657 12.3628 34.8872 12.3628ZM35.9929 25.9047V15.6103C35.9929 15.4031 35.8544 15.2647 35.6472 15.2647H34.1272C33.92 15.2647 33.7816 15.4031 33.7816 15.6103V25.9047C33.7816 26.1119 33.92 26.2503 34.1272 26.2503H35.6472C35.8544 26.1809 35.9929 26.0431 35.9929 25.9047ZM32.0544 26.1809V15.3344C31.2254 15.3344 29.9125 15.8869 29.9125 17.0616V24.4541C29.4291 24.5234 28.7379 24.5925 28.3238 24.5925C26.9416 24.5925 26.5966 23.625 26.5966 22.3122V16.9919C26.5272 15.6794 25.0763 15.3338 24.4547 15.3338V22.2431C24.4547 24.73 25.6985 26.3191 28.3235 26.3191C28.7379 26.3191 29.5672 26.1806 29.9125 26.1119L29.9307 26.2909C30.0263 28.4431 27.6325 27.5628 26.251 27.4247C25.2144 27.4247 24.5238 28.2538 24.316 29.2209C24.9379 29.4281 26.8729 29.6356 28.2544 29.7738C30.7419 29.8428 32.0544 28.4612 32.0544 26.1809ZM39.931 25.9047V15.6103C39.931 15.4031 39.7929 15.2647 39.5857 15.2647H38.0657C37.8582 15.2647 37.72 15.4031 37.72 15.6103V25.9047C37.72 26.1119 37.8582 26.2503 38.0657 26.2503H39.5857C39.7929 26.1809 39.931 26.0431 39.931 25.9047ZM14.5163 23.1472C14.3538 20.9984 13.6604 19.6056 13.3229 18.8159C12.9854 18.0269 12.4669 17.2878 12.4666 17.2891C12.4657 17.2925 11.9994 19.8037 11.1619 21.6203C11.0219 21.9237 10.8363 22.3028 10.6488 22.6078C10.0704 23.6291 9.23098 24.6062 8.73098 25.5962C8.23473 26.5778 8.14286 27.5497 8.1888 28.6547C8.23567 29.7659 8.49192 30.8559 8.7388 31.9362C9.66786 31.7356 10.4763 31.3928 11.176 30.9544C13.0166 29.8 14.1291 27.9544 14.4454 25.9653C14.4454 25.9653 14.461 25.8847 14.4675 25.7862C14.61 24.2491 14.5629 23.7644 14.5163 23.1472ZM14.5163 23.1472C14.3538 20.9984 13.6604 19.6056 13.3229 18.8159C12.9854 18.0269 12.4669 17.2878 12.4666 17.2891L12.3429 17.1047C9.62786 13.2944 4.42161 11.3916 0.0225467 13.155C-0.189328 15.8266 1.04911 20.4225 5.56723 21.7044C7.3938 22.2663 8.8563 22.1203 10.6488 22.6078C10.6488 22.6078 12.4707 23.2431 13.531 24.1956C14.0075 24.6238 14.485 25.1872 14.4613 25.8575C14.6122 24.2622 14.5638 23.7741 14.5163 23.1472ZM12.5438 15.0528C11.9016 13.1747 12.1738 11.9162 13.3482 10.165C13.9085 9.32937 14.8754 8.36 15.7232 7.8125C19.1429 9.95562 20.4075 13.9469 19.1497 17.6541C18.2344 20.3516 17.3757 21.4825 15.2044 24.2578C15.4575 21.2856 14.4113 19.225 13.3841 16.9353C13.1229 16.3528 12.7616 15.6897 12.5438 15.0528ZM14.4613 25.8572C14.4854 25.1869 14.0082 24.6234 13.531 24.195C12.471 23.2428 10.6488 22.6078 10.6488 22.6078C10.8363 22.3028 11.0222 21.9237 11.1622 21.6203C11.9997 19.8037 12.4657 17.2925 12.4666 17.2891C12.4669 17.2881 12.9854 18.0266 13.3229 18.8159C13.6604 19.6053 14.3538 20.9981 14.5169 23.1472C14.5638 23.7741 14.6125 24.2619 14.4613 25.8572Z" fill="#03021d"/>
</g>
<defs>
<clipPath id="clip0_33_25">
<rect width="40" height="40" fill="white"/>
</clipPath>
</defs>
</svg>
